<?xml version="1.0" encoding="UTF-8"?>
<svg width="894px" height="629px" viewBox="0 0 894 629" version="1.1" xmlns="http://www.w3.org/2000/svg" xmlns:xlink="http://www.w3.org/1999/xlink">
    <title>编组 12</title>
    <defs>
        <circle id="path-1" cx="145" cy="145" r="145"></circle>
        <circle id="path-3" cx="145" cy="145" r="145"></circle>
    </defs>
    <g id="通讯录" stroke="none" stroke-width="1" fill="none" fill-rule="evenodd">
        <g id="编组-12">
            <g id="编组-11">
                <g id="编组-10" transform="translate(0.000000, 97.000000)">
                    <path d="M5,0 L889,0 C891.761424,0 894,2.23857625 894,5 L894,527 C894,529.761424 891.761424,532 889,532 L5,532 C2.23857625,532 0,529.761424 0,527 L0,5 C0,2.23857625 2.23857625,0 5,0 Z" id="矩形" fill="#1A3675"></path>
                    <path d="M5,0 L889,0 C891.761424,-5.07265313e-16 894,2.23857625 894,5 L894,76 L894,76 L0,76 L0,5 C-3.38176876e-16,2.23857625 2.23857625,5.07265313e-16 5,0 Z" id="矩形备份-2" fill="#E0E0E0"></path>
                    <rect id="矩形备份-11" stroke="#D8D8D8" stroke-width="2" fill="#FFFFFF" x="32" y="49" width="830" height="20"></rect>
                    <path d="M5,0 L889,0 C891.761424,-5.07265313e-16 894,2.23857625 894,5 L894,42 L894,42 L0,42 L0,5 C-3.38176876e-16,2.23857625 2.23857625,5.07265313e-16 5,0 Z" id="矩形备份-10" fill="#ADADAD"></path>
                    <g id="编组-7" transform="translate(12.000000, 15.000000)">
                        <circle id="椭圆形" fill="#FF625A" cx="6" cy="6" r="6"></circle>
                        <circle id="椭圆形备份" fill="#FFBD2C" cx="22" cy="6" r="6"></circle>
                        <circle id="椭圆形备份-3" fill="#28CE42" cx="38" cy="6" r="6"></circle>
                    </g>
                    <path d="M85,15 L185,15 C188.865993,15 192,18.1340068 192,22 L192,35.7486114 L192,35.7486114 C192,37.7894637 192.959153,39.7116606 194.58985,40.9388146 L196,42 L196,42 L74,42 L75.353159,40.9625241 C76.9798322,39.715343 77.9532516,37.7978408 78,35.7486114 L78,35.7486114 L78,35.7486114 L78,22 C78,18.1340068 81.1340068,15 85,15 Z" id="矩形" fill="#D8D8D8"></path>
                </g>
                <g id="编组-9" transform="translate(585.000000, 0.000000)">
                    <mask id="mask-2" fill="white">
                        <use xlink:href="#path-1"></use>
                    </mask>
                    <g id="蒙版"></g>
                    <g mask="url(#mask-2)">
                        <g transform="translate(-112.000000, -8.000000)">
                            <polygon id="矩形" stroke="none" fill="#ADADAD" points="0 0.966593407 413.30245 0.966593407 413.30245 210.966593 0 210.966593"></polygon>
                            <polygon id="矩形备份-13" stroke="none" fill="#D7D6D6" points="0 92.4751648 413.30245 92.4751648 413.30245 210.966593 0 210.966593"></polygon>
                            <path d="M342.663329,126.655385 L2.27868132,126.655385 L2.27868132,185.901099 L342.663329,185.901099 C350.843456,185.901099 358.24917,182.585448 363.609853,177.224765 C368.970535,171.864082 372.286187,164.458368 372.286187,156.278242 C372.286187,148.098116 368.970535,140.692401 363.609853,135.331719 C358.24917,129.971036 350.843456,126.655385 342.663329,126.655385 Z" id="矩形备份-12" stroke="#D8D8D8" stroke-width="4.55736264" fill="#FFFFFF"></path>
                            <g id="编组-8" stroke="none" stroke-width="1" fill="none" transform="translate(228.768564, 133.491429)">
                                <g id="视频" fill="#000000" fill-rule="nonzero">
                                    <rect id="矩形" opacity="0" x="0" y="0" width="45.4950262" height="45.4950262"></rect>
                                    <path d="M28.8003786,8.40901146 C29.1294298,8.41648989 32.9135189,8.58849394 32.9135189,12.544587 L32.9135189,12.544587 L32.9130242,27.1232834 C29.139134,28.5400937 26.453451,32.1816676 26.453451,36.4505292 C26.453451,36.7571952 26.4673112,37.0606242 26.4944394,37.3602239 L4.13013672,37.3599487 C3.95804769,37.3580366 1.17789558e-12,37.27008 1.17789558e-12,33.2240757 L1.17789558e-12,33.2240757 L1.17789558e-12,12.544587 C1.17789558e-12,8.58849394 3.78408905,8.41648989 4.11314027,8.40901146 Z M45.4948929,8.40871596 L45.4955398,32.3576653 C43.99675,29.0369181 40.7302794,26.6853302 36.8956212,26.5023948 L36.4130705,26.4909097 C36.044591,26.4909097 35.6807853,26.5109202 35.3226807,26.5499137 L35.3226671,16.4881705 L45.4948929,8.40871596 Z" id="形状结合"></path>
                                </g>
                                <g id="扩展" transform="translate(26.526194, 26.565495)" fill-rule="nonzero">
                                    <rect id="矩形" fill="#000000" opacity="0" x="0" y="0" width="19.8146202" height="19.8146202"></rect>
                                    <path d="M9.90163136,1.23949148 C5.11853965,1.23949148 1.24109271,5.11693842 1.24109271,9.90003013 C1.24109271,14.6830945 5.11856701,18.5605688 9.90163136,18.5605688 C14.6846957,18.5605688 18.56217,14.6830945 18.56217,9.90003013 C18.56217,5.25764414 14.9094282,1.46836159 10.3212407,1.24947852 L9.90163136,1.23949148 Z M14.3975887,13.3439792 L13.1998956,14.5416724 L9.75585327,11.09763 L6.31194208,14.5415412 L5.11424892,13.3438481 L8.5581601,9.89993688 L5.11413651,6.45591329 L6.31182967,5.25818265 L9.75583453,8.70222498 L13.1998769,5.25818265 L14.3975887,6.45587582 L10.9535277,9.89991815 L14.3975887,13.3439792 Z" id="形状" fill="#D0021B"></path>
                                </g>
                                <g id="鼠标指针" transform="translate(23.231436, 34.508571)" fill="#000000" fill-rule="nonzero">
                                    <rect id="矩形" opacity="0" x="0" y="0" width="42" height="42"></rect>
                                    <path d="M11.0436163,5.7884103 C10.9737634,5.89201247 10.9466797,6.01913488 10.9466797,6.16464844 L10.9466797,33.7025391 C10.9466797,33.8489207 10.9732792,33.9759951 11.0428902,34.0792383 C11.123835,34.1992914 11.2753192,34.2582309 11.6775894,34.3768301 C11.8331608,34.3624391 11.9704897,34.2934973 12.0864857,34.1775013 L18.3205427,27.9300083 L22.1060272,36.8855859 C22.1838725,37.0553642 22.3119427,37.1771265 22.482499,37.2491925 C22.6507707,37.319299 22.8234784,37.3172616 22.9982803,37.246396 L26.2295844,35.877827 C26.3994369,35.7999881 26.521247,35.671894 26.5933331,35.5012901 C26.6634396,35.3330184 26.6614022,35.1603106 26.5905366,34.9855088 L22.616592,25.5818359 L30.3679688,25.5818359 C30.5143504,25.5818359 30.6414248,25.5552364 30.744668,25.4856254 C30.8522371,25.4130978 30.929473,25.2988481 30.9912087,25.1547982 C31.0484904,25.0219019 31.0743552,24.8972079 31.0501029,24.7786409 C31.0254503,24.658117 30.9511144,24.550749 30.8447372,24.4478406 L12.0864857,5.6896862 C11.9370416,5.53219057 11.7375509,5.52065096 11.0436163,5.7884103 Z" id="路径" stroke="#FFFFFF"></path>
                                </g>
                            </g>
                            <g id="拼图" stroke="none" stroke-width="1" fill="none" transform="translate(300.647066, 132.491429)">
                                <rect id="矩形" fill="#000000" fill-rule="nonzero" opacity="0" x="1" y="4" width="45.5736264" height="45.5736264"></rect>
                                <g id="收藏" transform="translate(0.786813, 0.503826)" fill="#000000" fill-rule="nonzero">
                                    <rect id="矩形" opacity="0" x="0" y="0" width="46" height="46"></rect>
                                    <path d="M22.9552325,11.612881 L25.4316428,17.4926085 L26.5971094,20.2617262 L29.5890065,20.5396332 L36.0599762,21.1406736 L31.5758177,25.1327062 L29.3839669,27.0852753 L30.0125454,29.9522716 C30.4716154,32.0492864 30.8749907,33.9650866 31.2177203,35.612881 L25.5455594,32.3382293 L23.0212928,30.8814476 L20.5062056,32.3541642 C18.2519044,33.6725854 16.482922,34.6923171 14.9784903,35.5382086 L16.3073285,30.1151275 L17.0418303,27.1171451 L14.6956841,25.1106861 C12.9891522,23.6527699 11.4565121,22.3428576 10.0781158,21.1774426 L16.1977437,20.6290029 L19.1663831,20.3621316 L20.3507756,17.6273075 L22.9552325,11.612881 M23.042274,4.285636 C22.533422,4.285636 22.131014,4.436286 21.840018,4.74421 C21.543594,5.045648 21.314238,5.414706 21.158068,5.833996 L16.54022,16.496014 L4.14529,17.608708 C3.854294,17.664368 3.586206,17.79326 3.345948,18.00509 C3.105184,18.218024 2.953982,18.508468 2.90375,18.883 C2.848044,19.252058 2.93756,19.61578 3.161442,19.97389 C3.390752,20.330988 3.664314,20.655288 3.982634,20.95231 L4.424878,21.326888 L5.448056,22.204844 C5.867346,22.561896 6.33144,22.959382 6.856668,23.395094 L8.43893,24.726242 C9.696846,25.7876 11.110978,26.99533 12.693194,28.348282 L11.32934,33.917272 C11.13936,34.632526 10.960282,35.331358 10.787184,36.024762 C10.614132,36.712692 10.456858,37.343858 10.32309,37.914948 C10.188816,38.48498 10.071378,38.970878 9.965486,39.38474 L9.764052,40.162186 C9.707794,40.39697 9.736222,40.631754 9.842114,40.85559 C9.948558,41.079426 10.116182,41.27488 10.345492,41.431096 C10.569282,41.593752 10.825916,41.688788 11.105458,41.7335 C11.167742,41.74224 11.229382,41.745552 11.291068,41.745552 C11.50621,41.745552 11.718592,41.693158 11.927708,41.593752 C12.062028,41.536988 12.324642,41.403772 12.710674,41.196266 C13.101582,40.984482 13.560202,40.715842 14.09693,40.39697 C14.628184,40.078098 15.226598,39.737422 15.880672,39.36289 C16.534746,38.993832 17.199768,38.619254 17.86479,38.250196 C19.419728,37.377714 21.141232,36.382918 23.04232,35.270224 L33.513806,41.314256 L34.095798,41.531606 C34.346912,41.62655 34.542412,41.671354 34.676732,41.671354 C35.079646,41.671354 35.43725,41.581838 35.761596,41.41472 C36.079916,41.241162 36.203288,40.889492 36.119154,40.357686 C36.091324,40.251748 36.041092,39.994102 35.962984,39.58024 L35.660534,38.094072 C35.537668,37.506606 35.409374,36.85796 35.280528,36.142706 C35.146208,35.426394 34.995558,34.71114 34.83879,33.995886 C34.48666,32.295726 34.089726,30.40002 33.631612,28.31001 L41.93935,20.913072 C42.286006,20.510112 42.571022,20.174864 42.800378,19.895322 C43.029642,19.615826 43.141606,19.29148 43.141606,18.922422 C43.141606,18.52604 43.035162,18.234492 42.822734,18.044466 C42.604326,17.859914 42.229794,17.70379 41.699092,17.56947 L29.298734,16.4174 L24.808582,5.755474 C24.752876,5.649536 24.680242,5.52069 24.585298,5.359092 C24.490308,5.202922 24.37839,5.04022 24.24407,4.884096 C24.10975,4.721394 23.942632,4.581646 23.746672,4.464806 C23.545146,4.346724 23.310408,4.285636 23.042274,4.285636" id="形状"></path>
                                </g>
                            </g>
                        </g>
                    </g>
                    <mask id="mask-4" fill="white">
                        <use xlink:href="#path-3"></use>
                    </mask>
                    <circle stroke="#D8D8D8" stroke-width="10" cx="145" cy="145" r="140"></circle>
                </g>
            </g>
            <rect id="矩形" x="0" y="0" width="894" height="629"></rect>
        </g>
    </g>
</svg>