<?xml version="1.0" encoding="UTF-8"?>
<svg width="10px" height="12px" viewBox="0 0 10 12" version="1.1" xmlns="http://www.w3.org/2000/svg" xmlns:xlink="http://www.w3.org/1999/xlink">
    <title>隐藏</title>
    <g id="设计稿" stroke="none" stroke-width="1" fill="none" fill-rule="evenodd" fill-opacity="0.9">
        <g id="01-非对称一条记录" transform="translate(-18.000000, -361.000000)" fill="#FFFFFF">
            <g id="编组-4" transform="translate(6.000000, 351.000000)">
                <g id="编组-2" transform="translate(12.000000, 10.000000)">
                    <path d="M5.79864505,0.670449516 L5.81039143,0.68219589 L5.81039143,0.68219589 C6.05736759,0.935887507 6.05736759,1.34012784 5.81039143,1.59381945 L1.52062355,6.00010621 L5.81039143,10.4061805 C6.05736759,10.6598722 6.05736759,11.0641125 5.81039143,11.3178041 C5.57180461,11.5628783 5.17971993,11.5681373 4.93464577,11.3295505 L4.9228994,11.3178041 L0.201354949,6.46755815 L0.189608575,6.45581178 C-0.0573675858,6.20212016 -0.0573675858,5.79787984 0.189608575,5.54418822 L4.9228994,0.68219589 C5.16148621,0.437121734 5.55357089,0.431862703 5.79864505,0.670449516 Z M9.79864505,0.670449516 L9.81039143,0.68219589 L9.81039143,0.68219589 C10.0573676,0.935887507 10.0573676,1.34012784 9.81039143,1.59381945 L5.52062355,6.00010621 L9.81039143,10.4061805 C10.0573676,10.6598722 10.0573676,11.0641125 9.81039143,11.3178041 C9.57180461,11.5628783 9.17971993,11.5681373 8.93464577,11.3295505 L8.9228994,11.3178041 L4.20135495,6.46755815 L4.18960857,6.45581178 C3.94263241,6.20212016 3.94263241,5.79787984 4.18960857,5.54418822 L8.9228994,0.68219589 C9.16148621,0.437121734 9.55357089,0.431862703 9.79864505,0.670449516 Z" id="隐藏"></path>
                </g>
            </g>
        </g>
    </g>
</svg>