<?xml version="1.0" encoding="UTF-8"?>
<svg width="30px" height="26px" viewBox="0 0 30 26" version="1.1" xmlns="http://www.w3.org/2000/svg" xmlns:xlink="http://www.w3.org/1999/xlink">
    <title></title>
    <defs>
        <rect id="path-1" x="0" y="0" width="30" height="25"></rect>
        <rect id="path-3" x="0" y="0" width="30" height="25"></rect>
    </defs>
    <g id="Web-RTC" stroke="none" stroke-width="1" fill-rule="evenodd">
        <g id="切图" transform="translate(-334.000000, -106.000000)">
            <g id="icon-摄像头--normal" transform="translate(334.000000, 107.000000)">
                <mask id="mask-2" fill="white">
                    <use xlink:href="#path-1"></use>
                </mask>
                <use id="蒙版" fill-opacity="0" fill="#D8D8D8" xlink:href="#path-1"></use>
                <path d="M1.99138087,5.84719195 C1.99138087,5.84719195 1.96234653,3.5 4.28747725,3.5 C5.82320555,3.5 19.591666,3.5 19.591666,3.5 C19.591666,3.5 21.8867433,3.46796512 21.8867433,5.84719195 C21.8867433,6.24590027 21.8867433,7.41297364 21.8867433,7.41297364 L28.0086191,4.28241203 L28.0086191,20.71761 L21.8867433,17.5870484 L21.8867433,19.1518283 C21.8867433,19.1518283 21.8807326,21.5 19.591666,21.5 C18.0669572,21.5 4.28747725,21.5 4.28747725,21.5 C4.28747725,21.5 1.99138087,21.4569235 1.99138087,19.1518283 C1.99138087,17.6541677 1.99138087,5.84719195 1.99138087,5.84719195 Z" id="路径" mask="url(#mask-2)"></path>
                <mask id="mask-4" fill="white">
                    <use xlink:href="#path-3"></use>
                </mask>
                <use id="蒙版" fill-opacity="0" fill="#D8D8D8" xlink:href="#path-3"></use>
            </g>
        </g>
    </g>
</svg>