<?xml version="1.0" encoding="UTF-8"?>
<svg width="30px" height="24px" viewBox="0 0 30 24" version="1.1" xmlns="http://www.w3.org/2000/svg" xmlns:xlink="http://www.w3.org/1999/xlink">
    <title></title>
    <defs>
        <rect id="path-1" x="0" y="0" width="30" height="23"></rect>
        <rect id="path-3" x="0" y="0" width="30" height="23"></rect>
    </defs>
    <g id="Web-RTC" stroke="none" stroke-width="1" fill-rule="evenodd">
        <g id="切图" transform="translate(-77.000000, -107.000000)">
            <g id="icon-取消全屏--Normal" transform="translate(77.000000, 108.000000)">
                <mask id="mask-2" fill="white">
                    <use xlink:href="#path-1"></use>
                </mask>
                <use id="蒙版" fill-opacity="0" fill="#D8D8D8" xlink:href="#path-1"></use>
                <path d="M25.1875,1.75 C26.2920695,1.75 27.1875,2.6454305 27.1875,3.75 L27.1875,19.25 C27.1875,20.3545695 26.2920695,21.25 25.1875,21.25 L4.8125,21.25 C3.7079305,21.25 2.8125,20.3545695 2.8125,19.25 L2.8125,3.75 C2.8125,2.6454305 3.7079305,1.75 4.8125,1.75 L25.1875,1.75 Z M23.8021267,13.4139081 L20.3514081,13.4139081 L20.234787,13.4206358 C19.7374483,13.4784009 19.3514081,13.9010723 19.3514081,14.4139081 L19.3514081,14.4139081 L19.3514081,17.8646267 L19.3582451,17.9746984 C19.4123926,18.4073734 19.7815574,18.7421267 20.2289081,18.7421267 C20.713538,18.7421267 21.1064081,18.3492566 21.1064081,17.8646267 L21.1064081,17.8646267 L21.1064081,16.411 L23.3760414,18.6795138 L23.465902,18.7580458 C23.8098483,19.0198191 24.3028858,18.9936418 24.6170138,18.6795138 C24.9596989,18.3368287 24.9596989,17.7812265 24.6170138,17.4385414 L24.6170138,17.4385414 L22.3464081,15.169 L23.8021267,15.1689081 L23.9121984,15.1620711 C24.3448734,15.1079236 24.6796267,14.7387587 24.6796267,14.2914081 C24.6796267,13.8067782 24.2867566,13.4139081 23.8021267,13.4139081 L23.8021267,13.4139081 Z M9.64859191,13.4139081 L6.1978733,13.4139081 C5.71324344,13.4139081 5.3203733,13.8067782 5.3203733,14.2914081 C5.3203733,14.776038 5.71324344,15.1689081 6.1978733,15.1689081 L6.1978733,15.1689081 L7.65359191,15.169 L5.3829862,17.4385414 C5.04030113,17.7812265 5.04030113,18.3368287 5.3829862,18.6795138 C5.72567127,19.0221989 6.28127354,19.0221989 6.6239586,18.6795138 L6.6239586,18.6795138 L8.89359191,16.411 L8.89359191,17.8646267 C8.89359191,18.3492566 9.28646204,18.7421267 9.77109191,18.7421267 C10.2557218,18.7421267 10.6485919,18.3492566 10.6485919,17.8646267 L10.6485919,17.8646267 L10.6485919,14.4139081 C10.6485919,13.8616233 10.2008767,13.4139081 9.64859191,13.4139081 L9.64859191,13.4139081 Z M24.6170138,4.3204862 C24.2743287,3.97780113 23.7187265,3.97780113 23.3760414,4.3204862 L23.3760414,4.3204862 L21.1064081,6.589 L21.1064081,5.1353733 C21.1064081,4.65074344 20.713538,4.2578733 20.2289081,4.2578733 C19.7442782,4.2578733 19.3514081,4.65074344 19.3514081,5.1353733 L19.3514081,5.1353733 L19.3514081,8.58609191 C19.3514081,9.13837666 19.7991233,9.58609191 20.3514081,9.58609191 L20.3514081,9.58609191 L23.8021267,9.58609191 C24.2867566,9.58609191 24.6796267,9.19322177 24.6796267,8.70859191 C24.6796267,8.22396204 24.2867566,7.83109191 23.8021267,7.83109191 L23.8021267,7.83109191 L22.3464081,7.831 L24.6170138,5.5614586 C24.9596989,5.21877354 24.9596989,4.66317127 24.6170138,4.3204862 Z M6.53409799,4.24195421 C6.19015175,3.98018089 5.69711418,4.00635822 5.3829862,4.3204862 C5.04030113,4.66317127 5.04030113,5.21877354 5.3829862,5.5614586 L5.3829862,5.5614586 L7.65359191,7.831 L6.1978733,7.83109191 L6.08780157,7.83792888 C5.65512655,7.89207642 5.3203733,8.26124126 5.3203733,8.70859191 C5.3203733,9.19322177 5.71324344,9.58609191 6.1978733,9.58609191 L6.1978733,9.58609191 L9.64859191,9.58609191 L9.76521303,9.57936417 C10.2625517,9.52159907 10.6485919,9.09892774 10.6485919,8.58609191 L10.6485919,8.58609191 L10.6485919,5.1353733 L10.6417549,5.02530157 C10.5876074,4.59262655 10.2184426,4.2578733 9.77109191,4.2578733 C9.28646204,4.2578733 8.89359191,4.65074344 8.89359191,5.1353733 L8.89359191,5.1353733 L8.89359191,6.589 L6.6239586,4.3204862 Z" id="形状结合" mask="url(#mask-2)"></path>
                <mask id="mask-4" fill="white">
                    <use xlink:href="#path-3"></use>
                </mask>
                <use id="蒙版" fill-opacity="0" xlink:href="#path-3"></use>
            </g>
        </g>
    </g>
</svg>