<?xml version="1.0" encoding="UTF-8"?>
<svg width="31px" height="26px" viewBox="0 0 31 26" version="1.1" xmlns="http://www.w3.org/2000/svg" xmlns:xlink="http://www.w3.org/1999/xlink">
    <title></title>
    <defs>
        <rect id="path-1" x="0" y="0" width="30" height="25"></rect>
    </defs>
    <g id="Web-RTC" stroke="none" stroke-width="1" fill-rule="evenodd">
        <g id="切图" transform="translate(-437.000000, -18.000000)">
            <g id="icon-关闭话筒-normal" transform="translate(437.380341, 19.000000)">
                <mask id="mask-2" fill="white">
                    <use xlink:href="#path-1"></use>
                </mask>
                <use id="蒙版" fill-opacity="0" fill="#D8D8D8" xlink:href="#path-1"></use>
                <path d="M4.26791734,0.605573361 L27.2420358,23.5796918 L25.8217276,25 L2.84760914,2.02588157 L4.26791734,0.605573361 Z M7.39633954,9.72176074 L8.61060914,10.9355734 L8.61130155,12.84386 C8.61130155,16.2643411 11.4679915,19.04386 15,19.04386 C15.5300701,19.04386 16.0449301,18.9812573 16.5372066,18.8632807 L17.8193367,20.1455857 C17.2110796,20.3689711 16.567634,20.5221694 15.8994335,20.5950896 L15.8998274,22.5036042 L16.7591726,22.5046042 C17.2562289,22.5046042 17.6591726,22.9075479 17.6591726,23.4046042 C17.6591726,23.9016604 17.2562289,24.3046042 16.7591726,24.3046042 L15.8998274,24.3036042 L15.9,24.3046042 L14.1,24.3046042 L14.0998274,24.3036042 L13.2408274,24.3046042 C12.7437711,24.3046042 12.3408274,23.9016604 12.3408274,23.4046042 C12.3408274,22.9075479 12.7437711,22.5046042 13.2408274,22.5046042 L14.0998274,22.5036042 L14.0994115,20.5949634 C10.1887876,20.1676406 7.12632887,16.9906436 7.00381063,13.0870106 L7,12.84386 L7,10.4109692 C7,10.1175226 7.15911123,9.86097776 7.39633954,9.72176074 Z M10.521848,12.8472183 L14.5517447,16.8789232 C12.4236874,16.6684707 10.7313688,14.9755494 10.521848,12.8472183 Z M22.1943492,9.61096921 C22.605071,9.61096921 22.9440089,9.91615736 22.9937228,10.3106189 L23,10.4109692 L23,12.84386 C23,13.8297534 22.8125292,14.7726133 22.4705402,15.6405698 L21.1950186,14.3645621 C21.3031857,13.9484015 21.3679825,13.5155797 21.3844903,13.070919 L21.3886984,12.84386 L21.3886984,10.4109692 C21.3886984,9.96914141 21.7494006,9.61096921 22.1943492,9.61096921 Z M15,1.30096921 C17.4852814,1.30096921 19.5,3.31568784 19.5,5.80096921 L19.5,12.4009692 C19.5,12.4886251 19.4974937,12.5756956 19.492549,12.6621129 L10.8610131,4.03201787 C11.5482372,2.42613913 13.1427198,1.30096921 15,1.30096921 Z" id="形状结合" mask="url(#mask-2)"></path>
            </g>
        </g>
    </g>
</svg>