<?xml version="1.0" encoding="UTF-8"?>
<svg width="16px" height="16px" viewBox="0 0 16 16" version="1.1" xmlns="http://www.w3.org/2000/svg" xmlns:xlink="http://www.w3.org/1999/xlink">
    <title></title>
    <defs>
        <linearGradient x1="4.5317396%" y1="99.9829206%" x2="96.0880949%" y2="14.6882289%" id="linearGradient-1">
            <stop stop-color="#3876FF" offset="0%"></stop>
            <stop stop-color="#69AEFF" offset="100%"></stop>
        </linearGradient>
    </defs>
    <g id="Web-RTC" stroke="none" stroke-width="1" fill="none" fill-rule="evenodd">
        <g id="切图" transform="translate(-13.000000, -217.000000)">
            <g id="icon-复制" transform="translate(13.000000, 217.000000)">
                <path d="M11.9642393,12.1762405 L11.9642393,5.05353166 C11.9642393,4.4929481 11.509423,4.03788614 10.9491421,4.03788614 L3.83027924,4.03788614 C3.83027924,2.91671901 3.9555185,2 5.07608025,2 L11.9642393,2 C13.0913925,2 14.001025,2.91012391 14.001025,4.03788614 L14.001025,10.9297665 C14.001025,12.0509336 13.084801,12.1762405 11.9642393,12.1762405 Z M6.94185647,9.1139115 L6.94185647,7.58897772 C6.94185647,7.40759793 6.79414533,7.25980699 6.61286348,7.25980699 C6.43158163,7.25980699 6.28387049,7.40759793 6.28387049,7.58897772 L6.28387049,9.1139115 L4.76647425,9.1139115 C4.5851924,9.12734704 4.45090955,9.27513798 4.45762369,9.45651777 C4.46433783,9.62446202 4.59862068,9.75209965 4.76647425,9.76553519 L6.29058463,9.76553519 L6.29058463,11.290469 C6.29058463,11.4718488 6.43829577,11.6196397 6.61957762,11.6196397 C6.80085947,11.6196397 6.94857061,11.4718488 6.94857061,11.290469 L6.94857061,9.76553519 L8.47268099,9.76553519 C8.65396284,9.75209965 8.7882457,9.60430871 8.78153155,9.42292892 C8.76810327,9.26170244 8.63382042,9.12734704 8.46596685,9.1139115 L6.94185647,9.1139115 Z M2.70426972,4.85259521 L2.70426972,4.84600011 L10.4493289,4.84600011 C10.8382297,4.84600011 11.1546236,5.16256494 11.1546236,5.55167589 L11.1546236,13.3009193 C11.1480321,13.6900303 10.8382297,14 10.4493289,14 L2.70426972,14 C2.31536888,14 2.00556651,13.6834352 1.99897497,13.3009193 L1.99897497,5.55167589 C1.99897497,5.16916004 2.31536888,4.84600011 2.70426972,4.85259521 Z" id="形状" fill="url(#linearGradient-1)" fill-rule="nonzero"></path>
                <rect id="矩形" fill-opacity="0" fill="#D8D8D8" x="0" y="0" width="16" height="16"></rect>
            </g>
        </g>
    </g>
</svg>