<?xml version="1.0" encoding="UTF-8"?>
<svg width="31px" height="24px" viewBox="0 0 31 24" version="1.1" xmlns="http://www.w3.org/2000/svg" xmlns:xlink="http://www.w3.org/1999/xlink">
    <title></title>
    <defs>
        <rect id="path-1" x="0" y="0" width="30" height="23"></rect>
        <rect id="path-3" x="0.0448224552" y="0" width="30" height="23"></rect>
    </defs>
    <g id="Web-RTC" stroke="none" stroke-width="1" fill-rule="evenodd">
        <g id="切图" transform="translate(-438.000000, -197.000000)">
            <g id="icon-挂断-normal" transform="translate(438.100000, 198.000000)">
                <mask id="mask-2" fill="white">
                    <use xlink:href="#path-1"></use>
                </mask>
                <use id="蒙版" fill-opacity="0" fill="#D8D8D8" xlink:href="#path-1"></use>
                <path d="M28.3204526,14.908412 C28.2474803,15.3907415 28.1264529,16.7113633 25.2529438,16.3358226 C22.3785447,15.9602819 20.6886116,15.9353645 19.9232917,14.5141833 C19.3484119,13.5432949 19.6883563,12.749498 19.6305124,12.3864161 C19.5735583,12.0233341 19.4685493,11.689619 18.1853037,11.4787111 C16.9029479,11.2686931 15.0448225,11.2599281 15.0448225,11.2599281 C15.0448225,11.2599281 13.186697,11.2686931 11.9043412,11.4787111 C10.6210956,11.689619 10.5160866,12.0233341 10.4582426,12.3864161 C10.4012886,12.749498 10.741233,13.5432949 10.1663532,14.5141833 C9.40014339,15.9353645 7.71110022,15.9602819 4.83670114,16.3358226 C1.96319197,16.7113633 1.84216464,15.3907415 1.76919228,14.908412 C1.69621992,14.4269724 1.80745827,11.889848 2.62350284,10.1491903 C4.13634446,6.92238808 15.0448225,7.43141479 15.0448225,7.43141479 C15.0448225,7.43141479 25.9533005,6.92238808 27.4661421,10.1491903 C28.2821866,11.889848 28.393425,14.4269724 28.3204526,14.908412 Z" id="路径" mask="url(#mask-2)"></path>
                <mask id="mask-4" fill="white">
                    <use xlink:href="#path-3"></use>
                </mask>
                <use id="蒙版" fill-opacity="0" xlink:href="#path-3"></use>
            </g>
        </g>
    </g>
</svg>