<?xml version="1.0" encoding="UTF-8"?>
<svg width="30px" height="24px" viewBox="0 0 30 24" version="1.1" xmlns="http://www.w3.org/2000/svg" xmlns:xlink="http://www.w3.org/1999/xlink">
    <title></title>
    <defs>
        <rect id="path-1" x="0" y="0" width="30" height="23"></rect>
        <rect id="path-3" x="0" y="0" width="30" height="23"></rect>
    </defs>
    <g id="Web-RTC" stroke="none" stroke-width="1" fill-rule="evenodd">
        <g id="切图" transform="translate(-95.000000, -107.000000)">
            <g id="icon-全屏--Normal" transform="translate(95.000000, 108.000000)">
                <mask id="mask-2" fill="white">
                    <use xlink:href="#path-1"></use>
                </mask>
                <use id="蒙版" fill-opacity="0" fill="#D8D8D8" xlink:href="#path-1"></use>
                <path d="M25.1875,1.75 C26.2920695,1.75 27.1875,2.6454305 27.1875,3.75 L27.1875,19.25 C27.1875,20.3545695 26.2920695,21.25 25.1875,21.25 L4.8125,21.25 C3.7079305,21.25 2.8125,20.3545695 2.8125,19.25 L2.8125,3.75 C2.8125,2.6454305 3.7079305,1.75 4.8125,1.75 L25.1875,1.75 Z M10.0281057,14.0343943 C9.68542064,13.6917092 9.12981837,13.6917092 8.7871333,14.0343943 L8.7871333,14.0343943 L6.5175,16.3029081 L6.5175,14.8492814 C6.5175,14.3646515 6.12462987,13.9717814 5.64,13.9717814 C5.15537013,13.9717814 4.7625,14.3646515 4.7625,14.8492814 L4.7625,14.8492814 L4.7625,18.3 C4.7625,18.8522847 5.21021525,19.3 5.7625,19.3 L5.7625,19.3 L9.2132186,19.3 C9.69784847,19.3 10.0907186,18.9071299 10.0907186,18.4225 C10.0907186,17.9378701 9.69784847,17.545 9.2132186,17.545 L9.2132186,17.545 L7.7575,17.5449081 L10.0281057,15.2753667 C10.3707908,14.9326816 10.3707908,14.3770794 10.0281057,14.0343943 Z M21.1230061,13.9558623 C20.7790598,13.694089 20.2860223,13.7202663 19.9718943,14.0343943 C19.6292092,14.3770794 19.6292092,14.9326816 19.9718943,15.2753667 L19.9718943,15.2753667 L22.2425,17.5449081 L20.7867814,17.545 L20.6767097,17.551837 C20.2440346,17.6059845 19.9092814,17.9751494 19.9092814,18.4225 C19.9092814,18.9071299 20.3021515,19.3 20.7867814,19.3 L20.7867814,19.3 L24.2375,19.3 L24.3541211,19.2932723 C24.8514598,19.2355072 25.2375,18.8128358 25.2375,18.3 L25.2375,18.3 L25.2375,14.8492814 L25.230663,14.7392097 C25.1765155,14.3065346 24.8073506,13.9717814 24.36,13.9717814 C23.8753701,13.9717814 23.4825,14.3646515 23.4825,14.8492814 L23.4825,14.8492814 L23.4825,16.3029081 L21.2128667,14.0343943 Z M24.2375,3.7 L20.7867814,3.7 C20.3021515,3.7 19.9092814,4.09287013 19.9092814,4.5775 C19.9092814,5.06212987 20.3021515,5.455 20.7867814,5.455 L20.7867814,5.455 L22.2425,5.45509191 L19.9718943,7.7246333 C19.6292092,8.06731837 19.6292092,8.62292064 19.9718943,8.9656057 C20.3145794,9.30829077 20.8701816,9.30829077 21.2128667,8.9656057 L21.2128667,8.9656057 L23.4825,6.69709191 L23.4825,8.1507186 C23.4825,8.63534847 23.8753701,9.0282186 24.36,9.0282186 C24.8446299,9.0282186 25.2375,8.63534847 25.2375,8.1507186 L25.2375,8.1507186 L25.2375,4.7 C25.2375,4.14771525 24.7897847,3.7 24.2375,3.7 L24.2375,3.7 Z M9.2132186,3.7 L5.7625,3.7 L5.64587887,3.70672773 C5.14854019,3.76449284 4.7625,4.18716416 4.7625,4.7 L4.7625,4.7 L4.7625,8.1507186 L4.76933697,8.26079034 C4.82348452,8.69346535 5.19264935,9.0282186 5.64,9.0282186 C6.12462987,9.0282186 6.5175,8.63534847 6.5175,8.1507186 L6.5175,8.1507186 L6.5175,6.69709191 L8.7871333,8.9656057 L8.87699391,9.0441377 C9.22094016,9.30591101 9.71397773,9.27973368 10.0281057,8.9656057 C10.3707908,8.62292064 10.3707908,8.06731837 10.0281057,7.7246333 L10.0281057,7.7246333 L7.7575,5.45509191 L9.2132186,5.455 L9.32329034,5.44816303 C9.75596535,5.39401548 10.0907186,5.02485065 10.0907186,4.5775 C10.0907186,4.09287013 9.69784847,3.7 9.2132186,3.7 L9.2132186,3.7 Z" id="形状结合" mask="url(#mask-2)"></path>
                <mask id="mask-4" fill="white">
                    <use xlink:href="#path-3"></use>
                </mask>
                <use id="蒙版" fill-opacity="0" fill="#D8D8D8" xlink:href="#path-3"></use>
            </g>
        </g>
    </g>
</svg>