<?xml version="1.0" encoding="UTF-8"?>
<svg width="30px" height="23px" viewBox="0 0 30 23" version="1.1" xmlns="http://www.w3.org/2000/svg" xmlns:xlink="http://www.w3.org/1999/xlink">
    <title></title>
    <defs>
        <rect id="path-1" x="0" y="0" width="30" height="23"></rect>
    </defs>
    <g id="Web-RTC" stroke="none" stroke-width="1" fill-rule="evenodd">
        <g id="切图" transform="translate(-254.000000, -232.000000)">
            <g id="icon-取消举手-normal" transform="translate(254.000000, 232.000000)">
                <path d="M23.8767427,13.537 L19.9532427,18.4475 C19.1377427,20.530875 17.1908677,22 14.9132427,22 L14.8003677,22 L18.0746177,17.681 L10.1996177,17.681 L13.4738677,22 L13.0949927,22 C10.0841177,22 7.64199272,19.435375 7.64199272,16.273125 L7.64199272,13.982375 L5.93749272,6.35325 C5.82461772,5.850125 6.07399272,5.332125 6.49399272,5.197375 L7.25436772,4.95325 C7.67436772,4.8185 8.10574272,5.116875 8.21861772,5.620875 L9.18024272,9.924125 C9.58974272,9.581125 10.0587427,9.2985 10.5846177,9.094625 L9.60024272,3.230375 C9.51361772,2.7115 9.84349272,2.21625 10.3378677,2.124375 L11.2329927,1.959 C11.7273677,1.867125 12.1981177,2.213625 12.2856177,2.7325 L13.2769927,8.636125 L14.0041177,8.636125 L14.0041177,1.406 C14.0041177,1.182 14.1861177,1 14.4109927,1 L16.3246177,1 C16.5486177,1 16.7306177,1.182 16.7306177,1.406 L16.7306177,8.86975 C17.0106177,8.9415 17.2774927,9.031625 17.5347427,9.136625 L18.4491177,3.687125 C18.5366177,3.16825 19.0082427,2.82175 19.5017427,2.91275 L20.3968677,3.079 C20.8912427,3.170875 21.2219927,3.66525 21.1344927,4.185 L19.9296177,11.362625 C20.2008677,11.952375 20.3662427,12.626125 20.3662427,13.40925 L20.3662427,13.476625 L21.7881177,11.696 C22.1109927,11.292625 22.6841177,11.240125 23.0682427,11.57875 L23.7647427,12.192125 C24.1497427,12.53075 24.1996177,13.13275 23.8767427,13.537 Z M15.4391177,12.4484182 L12.8351177,12.4484182 L12.8351177,17.6817932 L15.4391177,17.6817932 L15.4391177,12.4484182 Z" id="形状"></path>
                <mask id="mask-2" fill="white">
                    <use xlink:href="#path-1"></use>
                </mask>
                <use id="蒙版" fill-opacity="0" fill="#D8D8D8" xlink:href="#path-1"></use>
            </g>
        </g>
    </g>
</svg>