<?xml version="1.0" encoding="UTF-8"?>
<svg width="30px" height="23px" viewBox="0 0 30 23" version="1.1" xmlns="http://www.w3.org/2000/svg" xmlns:xlink="http://www.w3.org/1999/xlink">
    <title></title>
    <defs>
        <rect id="path-1" x="0" y="0" width="30" height="23"></rect>
    </defs>
    <g id="Web-RTC" stroke="none" stroke-width="1" fill-rule="evenodd">
        <g id="切图" transform="translate(-208.000000, -232.000000)">
            <g id="icon-举手发言--normal" transform="translate(208.000000, 232.000000)">
                <path d="M23.888965,13.5542621 L19.9600628,18.4715233 C19.2091553,20.3904118 17.4944226,21.7739392 15.4502368,21.9859807 L15.4502368,16.7716861 L12.8216225,16.7716861 L12.8216225,22 C9.9345277,21.8484166 7.63186153,19.3634998 7.63186153,16.2941545 L7.63186153,14.0002503 L5.92501462,6.36062085 C5.8119842,5.8568031 6.06170256,5.33808987 6.48228086,5.20315434 L7.24370281,4.9586932 C7.66428111,4.82375767 8.09625007,5.1225435 8.20928048,5.62723745 L9.17222954,9.93641257 C9.58229338,9.59294029 10.0519391,9.30992615 10.5785382,9.10577043 L9.59280783,3.23344599 C9.50606356,2.71385655 9.83639276,2.21792465 10.3314485,2.12592314 L11.227806,1.96032044 C11.7228617,1.86831894 12.1942598,2.21529603 12.2818803,2.73488547 L13.2746203,8.64663913 L14.0027465,8.64663913 L14.0027465,1.40655902 C14.0027465,1.18225059 14.1849971,1 14.4101817,1 L16.3264416,1 C16.55075,1 16.7330006,1.18225059 16.7330006,1.40655902 L16.7330006,8.88058581 C17.0133861,8.9524346 17.2806286,9.04268369 17.5382328,9.14782826 L18.4538668,3.69082488 C18.5414873,3.17123545 19.0137616,2.82425836 19.5088173,2.91538365 L20.4042986,3.08186256 C20.8993543,3.17386406 21.2305597,3.66891976 21.1429393,4.1893854 L19.9364053,11.3768932 C20.208905,11.9674553 20.3736315,12.6421329 20.3736315,13.4263362 L20.3736315,13.493804 L21.7974642,11.7107272 C22.1207838,11.3067968 22.6946979,11.2542246 23.0793518,11.5933158 L23.7768108,12.2075354 C24.1623409,12.5466266 24.2122846,13.1494555 23.888965,13.5542621 Z M14.148431,12.4348085 L10.1739661,16.7746508 L18.1220197,16.7746508 L14.148431,12.4348085 Z" id="形状"></path>
                <mask id="mask-2" fill="white">
                    <use xlink:href="#path-1"></use>
                </mask>
                <use id="蒙版" fill-opacity="0" fill="#D8D8D8" xlink:href="#path-1"></use>
            </g>
        </g>
    </g>
</svg>