<?xml version="1.0" encoding="UTF-8"?>
<svg width="30px" height="23px" viewBox="0 0 30 23" version="1.1" xmlns="http://www.w3.org/2000/svg" xmlns:xlink="http://www.w3.org/1999/xlink">
    <title></title>
    <defs>
        <rect id="path-1" x="0" y="0" width="30" height="23"></rect>
    </defs>
    <g id="Web-RTC" stroke="none" stroke-width="1" fill-rule="evenodd">
        <g id="切图" transform="translate(-300.000000, -232.000000)">
            <g id="icon-speaker-normal" transform="translate(300.000000, 232.000000)">
                <path d="M12.3882683,5.98356344 L18.4837365,5.98356344 C22.7451155,5.98356344 26.5380856,0.746698556 26.5380856,0.746698556 L26.5380856,20.0182559 L12.3882683,5.98356344 Z M23.3365587,21.1747778 L22.7178722,21.7987372 C22.5465031,21.9709852 22.2687972,21.9727428 22.0965493,21.8013737 L2.12984845,1.99725381 C1.95760051,1.82676349 1.95672169,1.5481788 2.127212,1.37593085 L2.74589851,0.751971453 C2.91726764,0.579723505 3.19497351,0.578844689 3.36722146,0.749335004 L23.3339223,20.5534549 C23.5061702,20.724824 23.5070491,21.0025299 23.3365587,21.1747778 Z M14.2205998,20.7872199 C14.2205998,21.5254254 13.6194896,22.377877 12.8777688,22.377877 L10.2008951,22.377877 C9.45917437,22.377877 8.85806419,21.5254254 8.85806419,20.7872199 L8.85806419,15.4774133 L7.62596408,15.4774133 C6.3903487,15.4774133 5.38849839,14.2259792 5.38849839,12.9965156 L5.38849839,8.94341593 L14.2205998,17.7025756 L14.2205998,20.7872199 Z" id="形状"></path>
                <mask id="mask-2" fill="white">
                    <use xlink:href="#path-1"></use>
                </mask>
                <use id="蒙版" fill-opacity="0" fill="#D8D8D8" xlink:href="#path-1"></use>
            </g>
        </g>
    </g>
</svg>