<?xml version="1.0" encoding="UTF-8"?>
<svg width="60px" height="20px" viewBox="0 0 60 20" version="1.1" xmlns="http://www.w3.org/2000/svg" xmlns:xlink="http://www.w3.org/1999/xlink">
    <title></title>
    <g stroke="none" stroke-width="1" fill="none" fill-rule="evenodd">
        <g >
            <path d="M59.2049907,16.0114889 C59.0444591,16.9766357 58.7782117,19.617575 52.4567937,18.8677753 C46.1334179,18.116018 42.4157428,18.0670754 40.7321195,15.2244929 C39.4654866,13.2804953 40.2152863,11.6927994 40.0880357,10.9664922 C39.9627428,10.2421426 39.731734,9.5745664 36.9087285,9.15366058 C34.0876807,8.73275477 25.9123193,8.73275477 23.0912715,9.15366058 C20.268266,9.5745664 20.0372572,10.2421426 19.9100066,10.9664922 C19.7847137,11.6927994 20.5325557,13.2804953 19.2678805,15.2244929 C17.5822995,18.0670754 13.8665821,18.116018 7.54320634,18.8677753 C1.22178827,19.617575 0.955540869,16.9766357 0.795009348,16.0114889 C0.634477827,15.0482997 0.879190511,9.97589521 2.67440277,6.49314428 C6.00249528,0.0405602039 30,1.05856497 30,1.05856497 C30,1.05856497 53.9975047,0.0405602039 57.3255972,6.49314428 C59.1208095,9.97589521 59.3655222,15.0482997 59.2049907,16.0114889 Z" id="路径" fill="#FFFFFF"></path>
            <rect id="矩形" x="0" y="0" width="60" height="20"></rect>
        </g>
    </g>
</svg>