<svg width="12" height="12" viewBox="0 0 12 12" fill="none" xmlns="http://www.w3.org/2000/svg">
<g clip-path="url(#clip0_2356_21624)">
<path d="M3.70253 11.5328C1.46148 10.6056 -1.43051e-05 8.41933 -1.43051e-05 5.99405C-0.00258827 2.68646 2.67646 0.00293541 5.98406 -1.43051e-05C8.40933 -0.00404835 10.598 1.45379 11.529 3.6933C12.4599 5.9328 11.9495 8.51259 10.236 10.2289C8.52252 11.9453 5.94359 12.46 3.70253 11.5328ZM5.98828 4.30078C6.45234 4.30078 6.83203 3.92109 6.83203 3.45703C6.83203 2.99297 6.45234 2.61328 5.98828 2.61328C5.52422 2.61328 5.14453 2.99297 5.14453 3.45703C5.14453 3.92109 5.52422 4.30078 5.98828 4.30078ZM5.98828 9.36328C6.45234 9.36328 6.83203 8.98359 6.83203 8.51953L6.83203 5.98828C6.83203 5.52422 6.45234 5.14453 5.98828 5.14453C5.52422 5.14453 5.14453 5.52422 5.14453 5.98828L5.14453 8.51953C5.14453 8.98359 5.52422 9.36328 5.98828 9.36328Z" fill="#D8D8D8"/>
</g>
<defs>
<clipPath id="clip0_2356_21624">
<rect width="12" height="12" fill="white"/>
</clipPath>
</defs>
</svg>
