<?xml version="1.0" encoding="UTF-8"?>
<svg width="17px" height="17px" viewBox="0 0 17 17" version="1.1" xmlns="http://www.w3.org/2000/svg" xmlns:xlink="http://www.w3.org/1999/xlink">
    <title></title>
    <g id="Web-RTC" stroke="none" stroke-width="1" fill="none" fill-rule="evenodd">
        <g id="切图" transform="translate(-444.000000, -252.000000)">
            <g id="icon-麦克-底座" transform="translate(444.500000, 252.500000)">
                <g id="静音icon">
                    <rect id="矩形" x="0" y="0" width="16" height="14.7692308"></rect>
                    <path d="M12.564425,6.62857143 C12.8800163,6.62857143 13.1358536,6.88440871 13.1358536,7.2 C13.1358536,9.84691312 11.1362187,12.0267865 8.56518383,12.3113853 L8.56442502,14.0571429 C8.56442502,14.3727341 8.30858774,14.6285714 7.99299645,14.6285714 C7.67740517,14.6285714 7.42156788,14.3727341 7.42156788,14.0571429 L7.42146236,12.3114576 C4.8501129,12.0271558 2.85013931,9.84713731 2.85013931,7.2 L2.85013931,7.2 L2.85761835,7.10731132 C2.90190431,6.83579963 3.13753572,6.62857143 3.42156788,6.62857143 C3.73715917,6.62857143 3.99299645,6.88440871 3.99299645,7.2 C3.99299645,9.409139 5.78385745,11.2 7.99299645,11.2 C10.2021355,11.2 11.9929965,9.409139 11.9929965,7.2 L11.9929965,7.2 L12.0004755,7.10731132 C12.0447614,6.83579963 12.2803929,6.62857143 12.564425,6.62857143 Z" id="形状结合" fill="#FFFFFF" fill-rule="nonzero"></path>
                </g>
                <rect id="矩形" fill-opacity="0" fill="#D8D8D8" x="0" y="0" width="16" height="16"></rect>
            </g>
        </g>
    </g>
</svg>