<svg width="20" height="16" viewBox="0 0 20 16" fill="none" xmlns="http://www.w3.org/2000/svg">
<path fill-rule="evenodd" clip-rule="evenodd" d="M8.74541 1C9.26388 1 9.69073 1.35986 9.74534 1.82216L9.75124 1.9227V14.0773C9.75124 14.3076 9.65739 14.5295 9.48811 14.6995C9.14231 15.0469 8.57362 15.0961 8.16555 14.8314L8.0671 14.7586L3.89864 11.2667H0.92869C0.415789 11.2667 0 10.8488 0 10.3333V5.66667C0 5.1512 0.415789 4.73333 0.92869 4.73333H3.89864L8.0671 1.24138C8.22156 1.11198 8.41532 1.03062 8.62088 1.0071L8.74541 1ZM16.0554 1.66432C17.7162 3.33344 18.6667 5.5918 18.6667 8C18.6667 10.4082 17.7162 12.6666 16.0554 14.3357C15.8378 14.5544 15.485 14.5544 15.2674 14.3357C15.0498 14.117 15.0498 13.7624 15.2674 13.5437C16.7213 12.0826 17.5522 10.1081 17.5522 8C17.5522 5.8919 16.7213 3.91744 15.2674 2.45628C15.0498 2.23759 15.0498 1.88302 15.2674 1.66432C15.485 1.44563 15.8378 1.44563 16.0554 1.66432ZM12.9372 4.56459C13.1059 4.78315 13.2584 5.01396 13.3934 5.25515C13.8585 6.08651 14.1064 7.0257 14.1064 8C14.1064 8.9743 13.8585 9.91349 13.3934 10.7449C13.2584 10.986 13.1059 11.2169 12.9372 11.4354C12.7799 11.639 12.4882 11.676 12.2856 11.518C12.083 11.36 12.0462 11.0668 12.2035 10.8632C12.3442 10.6809 12.4714 10.4885 12.5839 10.2874C12.9713 9.59485 13.1777 8.81303 13.1777 8C13.1777 7.18697 12.9713 6.40515 12.5839 5.71256C12.4714 5.51152 12.3442 5.31906 12.2035 5.13678C12.0462 4.93316 12.083 4.64 12.2856 4.482C12.4882 4.32399 12.7799 4.36097 12.9372 4.56459Z" fill="#393946" fill-opacity="0.4"/>
</svg>
