<svg width="33" height="32" viewBox="0 0 33 32" fill="none" xmlns="http://www.w3.org/2000/svg">
<path d="M16.5 32C25.3366 32 32.5 24.8366 32.5 16C32.5 7.16344 25.3366 0 16.5 0C7.66344 0 0.5 7.16344 0.5 16C0.5 24.8366 7.66344 32 16.5 32Z" fill="black" fill-opacity="0.6"/>
<path fill-rule="evenodd" clip-rule="evenodd" d="M22.6044 16.7379L14.0569 22.1363C13.6494 22.3937 13.1104 22.272 12.853 21.8645C12.7649 21.725 12.7182 21.5634 12.7182 21.3984L12.7182 10.6016C12.7182 10.1196 13.1089 9.72888 13.5909 9.72888C13.7559 9.72888 13.9175 9.77564 14.0569 9.86373L22.6044 15.2621C23.0119 15.5195 23.1337 16.0585 22.8763 16.466C22.807 16.5757 22.7141 16.6686 22.6044 16.7379Z" fill="white" fill-opacity="0.9"/>
</svg>
