<?xml version="1.0" encoding="UTF-8"?>
<svg width="32px" height="23px" viewBox="0 0 32 23" version="1.1" xmlns="http://www.w3.org/2000/svg" xmlns:xlink="http://www.w3.org/1999/xlink">
    <title></title>
    <defs>
        <rect id="path-1" x="0" y="0" width="32" height="23"></rect>
        <rect id="path-3" x="0" y="0" width="32" height="23"></rect>
    </defs>
    <g id="Web-RTC" stroke="none" stroke-width="1" fill-rule="evenodd">
        <g id="切图" transform="translate(-213.000000, -108.000000)">
            <g id="icon-布局--Normal" transform="translate(213.000000, 108.000000)">
                <mask id="mask-2" fill="white">
                    <use xlink:href="#path-1"></use>
                </mask>
                <use id="蒙版" fill-opacity="0" fill="#D8D8D8" xlink:href="#path-1"></use>
                <path d="M31.3657681,11.3686 L30.7168658,12.0049 C30.7168658,12.0049 30.7168658,12.0049 30.7168658,12.0049 L28.7701588,13.9138 C28.5902651,14.0893 28.3002324,14.0893 28.1203387,13.9138 L27.4714364,13.2775 C27.2924605,13.102 27.2924605,12.8167 27.4714364,12.6412 L29.0941511,11.05 L27.4714364,9.4588 C27.2924605,9.2833 27.2924605,8.998 27.4714364,8.8225 L28.1203387,8.1862 C28.3002324,8.0107 28.5902651,8.0107 28.7701588,8.1862 L30.7168658,10.0951 C30.7168658,10.0951 30.7168658,10.0951 30.7168658,10.0951 L31.3657681,10.7314 C31.544744,10.9078 31.544744,11.1922 31.3657681,11.3686 Z M24.315036,20.5 L7.79418513,20.5 C6.77998845,20.5 5.95853503,19.6945 5.95853503,18.7 L5.95853503,4.3 C5.95853503,3.3055 6.77998845,2.5 7.79418513,2.5 L24.315036,2.5 C25.3292327,2.5 26.1506861,3.3055 26.1506861,4.3 L26.1506861,18.7 C26.1506861,19.6945 25.3292327,20.5 24.315036,20.5 Z M16.9724356,12.4 C16.9724356,11.9032 16.56125,11.5 16.0546106,11.5 L8.71201018,11.5 C8.20537076,11.5 7.79418513,11.9032 7.79418513,12.4 L7.79418513,17.8 C7.79418513,18.2968 8.20537076,18.7 8.71201018,18.7 L16.0546106,18.7 C16.56125,18.7 16.9724356,18.2968 16.9724356,17.8 L16.9724356,12.4 Z M4.8470489,13.3585 L4.14674838,14.0182 C3.9530873,14.2 3.64010895,14.2 3.44644787,14.0182 L1.34554633,12.0391 C1.34554633,12.0391 1.34554633,12.0391 1.34554633,12.0391 L0.645245814,11.3794 C0.451584729,11.1976 0.451584729,10.9024 0.645245814,10.7206 L1.34554633,10.0609 C1.34554633,10.0609 1.34554633,10.0609 1.34554633,10.0609 L3.44644787,8.0818 C3.64010895,7.9 3.9530873,7.9 4.14674838,8.0818 L4.8470489,8.7415 C5.04070998,8.9233 5.04070998,9.2194 4.8470489,9.4012 L3.09675652,11.05 L4.8470489,12.6988 C5.04070998,12.8806 5.04070998,13.1758 4.8470489,13.3585 Z" id="形状" mask="url(#mask-2)"></path>
                <mask id="mask-4" fill="white">
                    <use xlink:href="#path-3"></use>
                </mask>
                <use id="蒙版" fill-opacity="0" fill="#D8D8D8" xlink:href="#path-3"></use>
            </g>
        </g>
    </g>
</svg>