<?xml version="1.0" encoding="UTF-8"?>
<svg width="30px" height="24px" viewBox="0 0 30 24" version="1.1" xmlns="http://www.w3.org/2000/svg" xmlns:xlink="http://www.w3.org/1999/xlink">
    <title></title>
    <g id="Web-RTC" stroke="none" stroke-width="1" fill-rule="evenodd">
        <g id="切图" transform="translate(-276.000000, -107.000000)">
            <g id="icon-参会者--Normal" transform="translate(276.000000, 108.000000)">
                <g id="编组" transform="translate(1.500000, 0.500000)">
                    <path d="M26.2173913,18.1095652 C26.2173913,18.513913 25.8852174,18.8417391 25.4756522,18.8417391 C25.066087,18.8417391 24.733913,18.513913 24.733913,18.1095652 C24.7026087,15.8626087 22.9078261,13.7782609 20.7556522,13.1982609 C20.1217391,13.0278261 19.98,12.3252174 20.0243478,11.8565217 C20.0756522,11.3165217 20.3895652,11.0069565 20.7130435,10.8434783 C21.5113043,10.4391304 22.0556522,9.63565217 22.0556522,8.70782609 C22.0556522,7.13217391 21.28,5.93652174 20.2226087,5.65217391 C20.2226087,5.65217391 19.8530435,5.35130435 19.9965217,4.8026087 C20.1156522,4.34521739 20.6104348,3.98956522 21.2895652,4.28782609 C22.7408696,4.92434783 23.7504348,6.38434783 23.7504348,8.69565217 C23.7504348,9.99565217 23.1095652,11.1486957 22.1191304,11.8886957 C24.5130435,12.8556522 26.2173913,15.3052174 26.2173913,18.1095652 Z M4.62775718,8.70782609 C4.62775718,9.63565217 5.17297457,10.4391304 5.97036588,10.8434783 C6.29384414,11.0069565 6.60775718,11.3165217 6.65906153,11.8565217 C6.70340935,12.3252174 6.56167022,13.0278261 5.92775718,13.1982609 C3.77645283,13.7782609 1.98167022,15.8626087 1.95036588,18.1095652 C1.95036588,18.513913 1.61819196,18.8417391 1.20862675,18.8417391 C0.799061528,18.8417391 0.466887615,18.513913 0.466887615,18.1095652 C0.466887615,15.3052174 2.17036588,12.8556522 4.56514848,11.8886957 C3.57384414,11.1486957 2.93384414,9.99565217 2.93384414,8.69565217 C2.93384414,6.44869565 3.94253979,4.92434783 5.3947137,4.28782609 C6.07297457,3.98956522 6.56775718,4.34521739 6.68688762,4.8026087 C6.83036588,5.35130435 6.46080066,5.65217391 6.46080066,5.65217391 C5.40427892,5.93652174 4.62775718,7.14086957 4.62775718,8.70782609 Z" id="形状"></path>
                    <path d="M22.2929582,20.1468726 C22.2929582,20.1850197 22.2877113,20.2213503 22.2877113,20.2604057 L4.3974421,20.2604057 C4.39656762,20.2213503 4.39132069,20.1850197 4.39132069,20.1468726 C4.39132069,16.2177172 6.80315774,12.8753013 10.1874251,11.5655828 C8.50053835,10.4847472 7.37507269,8.56921588 7.37507269,6.37938845 C7.37507269,2.99973359 10.0466326,0.260405703 13.3425767,0.260405703 C16.6376463,0.260405703 19.3092062,2.99973359 19.3092062,6.37938845 C19.3092062,8.56921588 18.1837406,10.4847472 16.4968538,11.5655828 C19.8811212,12.8753013 22.2929582,16.2177172 22.2929582,20.1468726 Z" id="路径"></path>
                </g>
                <rect id="矩形" fill-opacity="0" x="0" y="0" width="30" height="23"></rect>
            </g>
        </g>
    </g>
</svg>