<svg width="40" height="28" viewBox="0 0 40 28" fill="none" xmlns="http://www.w3.org/2000/svg">
<path opacity="0.902" fill-rule="evenodd" clip-rule="evenodd" d="M21 23.3717V24.9608H23.5C24.0525 24.9608 24.5 25.4171 24.5 25.9804C24.5 26.5437 24.0525 27 23.5 27H16.5C15.9475 27 15.5 26.5437 15.5 25.9804C15.5 25.4171 15.9475 24.9608 16.5 24.9608H19V23.3717C14.5005 22.864 11 18.9777 11 14.2549V13.7451C11 13.1818 11.4475 12.7255 12 12.7255C12.5525 12.7255 13 13.1818 13 13.7451V14.2549C13 18.1967 16.134 21.3922 20 21.3922C23.866 21.3922 27 18.1967 27 14.2549V13.7451C27 13.1818 27.4475 12.7255 28 12.7255C28.5525 12.7255 29 13.1818 29 13.7451V14.2549C29 18.9777 25.4995 22.864 21 23.3717Z" fill="white"/>
</svg>
