<svg width="18" height="26" viewBox="0 0 18 26" fill="none" xmlns="http://www.w3.org/2000/svg">
<path opacity="0.902" fill-rule="evenodd" clip-rule="evenodd" d="M10 22.4415V24H12.5C13.0525 24 13.5 24.4475 13.5 25C13.5 25.5525 13.0525 26 12.5 26H5.5C4.9475 26 4.5 25.5525 4.5 25C4.5 24.4475 4.9475 24 5.5 24H8V22.4415C3.5005 21.9435 0 18.132 0 13.5V13C0 12.4475 0.4475 12 1 12C1.5525 12 2 12.4475 2 13V13.5C2 17.366 5.134 20.5 9 20.5C12.866 20.5 16 17.366 16 13.5V13C16 12.4475 16.4475 12 17 12C17.5525 12 18 12.4475 18 13V13.5C18 18.132 14.4995 21.9435 10 22.4415ZM9 19C5.9625 19 3.5 16.5375 3.5 13.5V6C3.5 2.9625 5.9625 0.5 9 0.5C12.0375 0.5 14.5 2.9625 14.5 6V13.5C14.5 16.5375 12.0375 19 9 19Z" fill="white"/>
</svg>
