<?xml version="1.0" encoding="UTF-8"?>
<svg width="30px" height="26px" viewBox="0 0 30 26" version="1.1" xmlns="http://www.w3.org/2000/svg" xmlns:xlink="http://www.w3.org/1999/xlink">
    <title></title>
    <defs>
        <rect id="path-1" x="0" y="0" width="30" height="25"></rect>
        <rect id="path-3" x="0" y="0" width="30" height="25"></rect>
    </defs>
    <g id="Web-RTC" stroke="none" stroke-width="1" fill-rule="evenodd">
        <g id="切图" transform="translate(-392.000000, -50.000000)">
            <g id="icon-关闭摄像头备份" transform="translate(392.000000, 50.000000)">
                <mask id="mask-2" fill="white">
                    <use xlink:href="#path-1"></use>
                </mask>
                <use id="蒙版" fill-opacity="0" fill="#D8D8D8" xlink:href="#path-1"></use>
                <path d="M26.6713892,19.9017012 L10.1709213,3.40121131 C14.4924486,3.40121131 19.5676727,3.40121131 19.5676727,3.40121131 C19.5676727,3.40121131 21.854718,3.36928852 21.854718,5.74118711 C21.854718,6.13850009 21.854718,7.30049082 21.854718,7.30049082 L27.9551693,4.18088514 L27.9551693,20.5585654 L26.6713892,19.9017012 Z M25.8897408,23.6482229 L25.1839612,24.3540025 C24.9882995,24.5486658 24.672845,24.5486658 24.4781816,24.3540025 L2.18173589,2.05755672 C1.9870725,1.86289333 1.9870725,1.54644053 2.18173589,1.35177714 L2.88751548,0.645997546 C3.08217888,0.451334151 3.39863168,0.451334151 3.59329507,0.645997546 L25.8897408,22.9424433 C26.0844042,23.1371067 26.0844042,23.4525612 25.8897408,23.6482229 Z M4.31704359,21.3382172 C4.31704359,21.3382172 2.029,21.2952915 2.029,18.9982634 C2.029,17.6655679 2.029,8.16399767 2.029,6.14049664 L17.2267206,21.3382172 C12.8772416,21.3382172 4.31704359,21.3382172 4.31704359,21.3382172 Z" id="形状" mask="url(#mask-2)"></path>
                <mask id="mask-4" fill="white">
                    <use xlink:href="#path-3"></use>
                </mask>
                <use id="蒙版" fill-opacity="0" fill="#D8D8D8" xlink:href="#path-3"></use>
            </g>
        </g>
    </g>
</svg>