<?xml version="1.0" encoding="UTF-8"?>
<svg width="30px" height="26px" viewBox="0 0 30 26" version="1.1" xmlns="http://www.w3.org/2000/svg" xmlns:xlink="http://www.w3.org/1999/xlink">
    <title></title>
    <defs>
        <rect id="path-1" x="0" y="0" width="30" height="25"></rect>
        <rect id="path-3" x="0" y="0" width="30" height="25"></rect>
    </defs>
    <g id="Web-RTC" stroke="none" stroke-width="1" fill="none" fill-rule="evenodd">
        <g id="切图" transform="translate(-392.000000, -111.000000)">
            <g id="icon-关闭摄像头没权限" transform="translate(392.000000, 111.000000)">
                <mask id="mask-2" fill="white">
                    <use xlink:href="#path-1"></use>
                </mask>
                <use id="蒙版" fill-opacity="0" fill="#D8D8D8" xlink:href="#path-1"></use>
                <path d="M26.6713892,19.9017012 L10.1709213,3.40121131 C14.4924486,3.40121131 19.5676727,3.40121131 19.5676727,3.40121131 C19.5676727,3.40121131 21.854718,3.36928852 21.854718,5.74118711 C21.854718,6.13850009 21.854718,7.30049082 21.854718,7.30049082 L27.9551693,4.18088514 L27.9551693,20.5585654 L26.6713892,19.9017012 Z M25.8897408,23.6482229 L25.1839612,24.3540025 C24.9882995,24.5486658 24.672845,24.5486658 24.4781816,24.3540025 L2.18173589,2.05755672 C1.9870725,1.86289333 1.9870725,1.54644053 2.18173589,1.35177714 L2.88751548,0.645997546 C3.08217888,0.451334151 3.39863168,0.451334151 3.59329507,0.645997546 L25.8897408,22.9424433 C26.0844042,23.1371067 26.0844042,23.4525612 25.8897408,23.6482229 Z M4.31704359,21.3382172 C4.31704359,21.3382172 2.029,21.2952915 2.029,18.9982634 C2.029,17.6655679 2.029,8.16399767 2.029,6.14049664 L17.2267206,21.3382172 C12.8772416,21.3382172 4.31704359,21.3382172 4.31704359,21.3382172 Z" id="形状" fill-opacity="0.8" fill="#FF6666" mask="url(#mask-2)"></path>
                <mask id="mask-4" fill="white">
                    <use xlink:href="#path-3"></use>
                </mask>
                <use id="蒙版" fill-opacity="0" fill="#D8D8D8" xlink:href="#path-3"></use>
                <g id="编组-11" mask="url(#mask-4)">
                    <g transform="translate(20.000000, 0.000000)">
                        <circle id="椭圆形" stroke-opacity="0.9" stroke="#FFFFFF" stroke-width="0.8" fill-opacity="0.8" fill="#FF6666" fill-rule="evenodd" cx="5" cy="5" r="4.6"></circle>
                        <path d="M5.52767091,6.02524873 L5.73736524,2.75152348 C5.76345067,2.34428068 5.45446156,1.99299874 5.04721875,1.96691331 C5.03149494,1.96590615 5.01574294,1.96540218 4.99998691,1.96540218 C4.59190952,1.96540218 4.26109744,2.29621426 4.26109744,2.70429165 C4.26109744,2.72004768 4.26160141,2.73579968 4.26260858,2.75152348 L4.47230291,6.02524873 C4.49013136,6.30358442 4.72108082,6.520214 4.99998691,6.520214 C5.27889301,6.520214 5.50984247,6.30358442 5.52767091,6.02524873 Z M4.99643852,8.03459782 C5.15256756,8.03459782 5.28030949,7.98361404 5.39385788,7.88164647 C5.49321272,7.77967889 5.54998691,7.64129433 5.54998691,7.48105957 C5.54998691,7.32082482 5.49321272,7.18972365 5.39385788,7.08775608 C5.28740627,6.98578851 5.15256756,6.93480472 4.99643852,6.93480472 C4.84030949,6.93480472 4.71256756,6.98578851 4.61321272,7.08775608 C4.49966433,7.18972365 4.44998691,7.32082482 4.44998691,7.48105957 C4.44998691,7.64129433 4.49966433,7.7723955 4.61321272,7.87436307 C4.71256756,7.97633064 4.84030949,8.03459782 4.99643852,8.03459782 Z" id="！" stroke="none" fill="#FFFFFF" fill-rule="nonzero"></path>
                    </g>
                </g>
            </g>
        </g>
    </g>
</svg>