<?xml version="1.0" encoding="UTF-8"?>
<svg width="31px" height="26px" viewBox="0 0 31 26" version="1.1" xmlns="http://www.w3.org/2000/svg" xmlns:xlink="http://www.w3.org/1999/xlink">
    <title></title>
    <defs>
        <rect id="path-1" x="0" y="0" width="30" height="25"></rect>
        <rect id="path-3" x="0.0448224552" y="0" width="30" height="25"></rect>
    </defs>
    <g id="Web-RTC" stroke="none" stroke-width="1" fill="none" fill-rule="evenodd">
        <g id="切图" transform="translate(-438.000000, -111.000000)">
            <g id="icon-关闭话筒没权限" transform="translate(438.100000, 111.000000)">
                <mask id="mask-2" fill="white">
                    <use xlink:href="#path-1"></use>
                </mask>
                <use id="蒙版" fill-opacity="0" fill="#D8D8D8" xlink:href="#path-1"></use>
                <path d="M4.26791734,-6.66133815e-16 L27.2420358,22.9741184 L25.8217276,24.3944266 L2.84760914,1.42030821 L4.26791734,-6.66133815e-16 Z M7.39633954,9.11618738 L8.61060914,10.33 L8.61130155,12.2382866 C8.61130155,15.6587677 11.4679915,18.4382866 15,18.4382866 C15.5300701,18.4382866 16.0449301,18.375684 16.5372066,18.2577073 L17.8193367,19.5400124 C17.2110796,19.7633978 16.567634,19.916596 15.8994335,19.9895162 L15.8998274,21.8980308 L16.7591726,21.8990308 C17.2562289,21.8990308 17.6591726,22.3019745 17.6591726,22.7990308 C17.6591726,23.2960871 17.2562289,23.6990308 16.7591726,23.6990308 L15.8998274,23.6980308 L15.9,23.6990308 L14.1,23.6990308 L14.0998274,23.6980308 L13.2408274,23.6990308 C12.7437711,23.6990308 12.3408274,23.2960871 12.3408274,22.7990308 C12.3408274,22.3019745 12.7437711,21.8990308 13.2408274,21.8990308 L14.0998274,21.8980308 L14.0994115,19.9893901 C10.1887876,19.5620673 7.12632887,16.3850703 7.00381063,12.4814372 L7,12.2382866 L7,9.80539585 C7,9.51194924 7.15911123,9.2554044 7.39633954,9.11618738 Z M10.521848,12.241645 L14.5517447,16.2733499 C12.4236874,16.0628974 10.7313688,14.369976 10.521848,12.241645 Z M22.1943492,9.00539585 C22.605071,9.00539585 22.9440089,9.310584 22.9937228,9.70504555 L23,9.80539585 L23,12.2382866 C23,13.2241801 22.8125292,14.1670399 22.4705402,15.0349964 L21.1950186,13.7589888 C21.3031857,13.3428282 21.3679825,12.9100064 21.3844903,12.4653457 L21.3886984,12.2382866 L21.3886984,9.80539585 C21.3886984,9.36356805 21.7494006,9.00539585 22.1943492,9.00539585 Z M15,0.695395849 C17.4852814,0.695395849 19.5,2.71011447 19.5,5.19539585 L19.5,11.7953958 C19.5,11.8830517 19.4974937,11.9701222 19.492549,12.0565396 L10.8610131,3.42644451 C11.5482372,1.82056577 13.1427198,0.695395849 15,0.695395849 Z" id="形状结合" fill-opacity="0.8" fill="#FF6666" mask="url(#mask-2)"></path>
                <mask id="mask-4" fill="white">
                    <use xlink:href="#path-3"></use>
                </mask>
                <use id="蒙版" fill-opacity="0" fill="#D8D8D8" xlink:href="#path-3"></use>
                <g id="编组-11" mask="url(#mask-4)">
                    <g transform="translate(20.000000, 0.000000)">
                        <circle id="椭圆形" stroke-opacity="0.9" stroke="#FFFFFF" stroke-width="0.8" fill-opacity="0.8" fill="#FF6666" fill-rule="evenodd" cx="5" cy="5" r="4.6"></circle>
                        <path d="M5.52767091,6.02524873 L5.73736524,2.75152348 C5.76345067,2.34428068 5.45446156,1.99299874 5.04721875,1.96691331 C5.03149494,1.96590615 5.01574294,1.96540218 4.99998691,1.96540218 C4.59190952,1.96540218 4.26109744,2.29621426 4.26109744,2.70429165 C4.26109744,2.72004768 4.26160141,2.73579968 4.26260858,2.75152348 L4.47230291,6.02524873 C4.49013136,6.30358442 4.72108082,6.520214 4.99998691,6.520214 C5.27889301,6.520214 5.50984247,6.30358442 5.52767091,6.02524873 Z M4.99643852,8.03459782 C5.15256756,8.03459782 5.28030949,7.98361404 5.39385788,7.88164647 C5.49321272,7.77967889 5.54998691,7.64129433 5.54998691,7.48105957 C5.54998691,7.32082482 5.49321272,7.18972365 5.39385788,7.08775608 C5.28740627,6.98578851 5.15256756,6.93480472 4.99643852,6.93480472 C4.84030949,6.93480472 4.71256756,6.98578851 4.61321272,7.08775608 C4.49966433,7.18972365 4.44998691,7.32082482 4.44998691,7.48105957 C4.44998691,7.64129433 4.49966433,7.7723955 4.61321272,7.87436307 C4.71256756,7.97633064 4.84030949,8.03459782 4.99643852,8.03459782 Z" id="！" stroke="none" fill="#FFFFFF" fill-rule="nonzero"></path>
                    </g>
                </g>
            </g>
        </g>
    </g>
</svg>