<svg width="80" height="68" viewBox="0 0 80 68" fill="none" xmlns="http://www.w3.org/2000/svg">
<rect x="12" y="56" width="21" height="30" rx="2" transform="rotate(-90 12 56)" fill="white" fill-opacity="0.4"/>
<rect x="13" y="55" width="19" height="28" rx="1" transform="rotate(-90 13 55)" stroke="white" stroke-opacity="0.6" stroke-width="2"/>
<rect x="67" y="55" width="26" height="38" rx="1" transform="rotate(180 67 55)" fill="white" fill-opacity="0.5" stroke="white" stroke-width="2"/>
<path d="M31.9907 24.3569V26.059C31.9907 26.1007 32.0014 26.1415 32.0216 26.177C32.0419 26.2124 32.0709 26.2411 32.1053 26.2597C32.1397 26.2784 32.1783 26.2862 32.2167 26.2825C32.255 26.2788 32.2916 26.2635 32.3224 26.2385L35.9171 23.3212C35.9428 23.3003 35.9637 23.2732 35.9781 23.2421C35.9925 23.2109 36 23.1765 36 23.1417C36 23.1069 35.9925 23.0725 35.9781 23.0413C35.9637 23.0102 35.9428 22.9831 35.9171 22.9622L32.3224 20.0449C32.2916 20.0199 32.255 20.0046 32.2167 20.0009C32.1783 19.9972 32.1397 20.0051 32.1053 20.0237C32.0709 20.0423 32.0419 20.071 32.0216 20.1064C32.0014 20.1419 31.9907 20.1827 31.9907 20.2244V22.1128C29.5171 22.1149 27.1455 23.1797 25.3972 25.0733C23.6488 26.9669 22.6667 29.5342 22.6667 32.2111C22.6666 32.3585 22.6934 32.5044 22.7455 32.6406C22.7976 32.7767 22.874 32.9004 22.9703 33.0046C23.0666 33.1088 23.1809 33.1915 23.3067 33.2479C23.4325 33.3043 23.5673 33.3333 23.7035 33.3333C23.8396 33.3333 23.9745 33.3043 24.1003 33.2479C24.2261 33.1915 24.3404 33.1088 24.4367 33.0046C24.5329 32.9004 24.6093 32.7767 24.6614 32.6406C24.7135 32.5044 24.7403 32.3585 24.7403 32.2111C24.7403 30.1294 25.5039 28.1328 26.8634 26.6601C28.2229 25.1874 30.0671 24.359 31.9907 24.3569V24.3569Z" fill="white"/>
</svg>
