<?xml version="1.0" encoding="UTF-8"?>
<svg width="16px" height="16px" viewBox="0 0 16 16" version="1.1" xmlns="http://www.w3.org/2000/svg" xmlns:xlink="http://www.w3.org/1999/xlink">
    <title></title>
    <g id="Web-RTC" stroke="none" stroke-width="1" fill-rule="evenodd">
        <g id="切图" transform="translate(-43.000000, -217.000000)">
            <g id="icon-设置-常态" transform="translate(43.000000, 217.000000)">
                <path d="M9.74949234,1 C10.0113597,1 10.1862711,1.175 10.1862711,1.43799999 L10.1862711,3.1 C10.5360939,3.275 10.8859168,3.45 11.1487836,3.625 L12.5480749,2.75 C12.7659641,2.63553643 13.0352971,2.71259057 13.1597651,2.925 L14.9088792,5.98799999 C15.0837906,6.25 14.9968346,6.51299999 14.7339677,6.6 L13.3346765,7.475 L13.3346765,8.525 L14.7339677,9.4 C14.9088792,9.48799999 14.9968346,9.75 14.9088792,10.013 L13.1597651,13.075 C13.0728091,13.25 12.8099422,13.338 12.5480749,13.25 L11.1487836,12.375 C10.8859168,12.55 10.5360939,12.813 10.1862711,12.9 L10.1862711,14.563 C10.1862711,14.825 10.0113597,15 9.74949234,15 L6.25126416,15 C5.98839731,15 5.8134859,14.825 5.8134859,14.563 L5.8134859,12.9 C5.46366308,12.725 5.11384026,12.55 4.85197289,12.375 L3.45268162,13.25 C3.23455216,13.3651119 2.96450489,13.2879795 2.83999195,13.075 L1.09087786,10.013 C0.915966454,9.75 1.0039219,9.48799999 1.26578927,9.4 L2.66508054,8.525 L2.66508054,7.475 L1.26578927,6.6 C1.0039219,6.51299999 0.915966454,6.25 1.09087786,5.98799999 L2.83999195,2.925 C2.9279474,2.75 3.18981477,2.66299999 3.45268162,2.83799999 L4.85197289,3.71299999 C5.11384026,3.53799999 5.46366308,3.275 5.8134859,3.18799999 L5.8134859,1.43799999 C5.8134859,1.175 5.98839731,1 6.25126416,1 L9.74949234,1 Z M9.31071458,1.875 L6.68804294,1.875 L6.68804294,3.36299999 C6.68804294,3.53799999 6.60108698,3.71299999 6.42617557,3.8 C5.99008531,3.98055256 5.57866961,4.21576632 5.20179571,4.5 C5.03780794,4.58746668 4.84104925,4.58746668 4.67706148,4.5 L3.36472618,3.8 L2.05339035,6.075 L3.36472618,6.86299999 C3.53963759,6.95 3.62759303,7.125 3.53963759,7.3 L3.52605072,7.48348437 L3.52605072,7.48348437 L3.46626849,7.81707812 C3.45811637,7.8744375 3.45268162,7.9345 3.45268162,8 C3.45268162,8.26299999 3.45268162,8.43799999 3.53963759,8.7 C3.62759303,8.875 3.53963759,9.05 3.36472618,9.13799999 L2.05339035,9.925 L3.36472618,12.2 L4.67706148,11.413 C4.84104925,11.3255333 5.03780794,11.3255333 5.20179571,11.413 C5.55161853,11.675 5.98839731,11.938 6.42617557,12.113 C6.58974215,12.1966492 6.69136835,12.3662413 6.68804294,12.55 L6.68804294,14.125 L9.31171407,14.125 L9.31171407,12.638 C9.31171407,12.463 9.39966952,12.288 9.57458093,12.2 C10.0106712,12.0194474 10.4220869,11.7842337 10.7989608,11.5 C10.9629486,11.4125333 11.1597072,11.4125333 11.323695,11.5 L12.6350308,12.288 L13.9473661,10.013 L12.6350308,9.225 C12.4601194,9.05 12.3731635,8.875 12.4601194,8.7 C12.4601194,8.43799999 12.5480749,8.26299999 12.5480749,8 C12.5480749,7.73799999 12.5480749,7.56299999 12.4601194,7.3 C12.4601194,7.125 12.5480749,6.95 12.6350308,6.86299999 L13.9473661,6.075 L12.6340313,3.8 L11.3226955,4.58799999 C11.1587078,4.67546668 10.9619491,4.67546668 10.7979613,4.58799999 C10.4210874,4.30376632 10.0096717,4.06855256 9.57358145,3.88799999 C9.39867004,3.71299999 9.31071459,3.53799999 9.31071458,3.36299999 L9.31071458,1.875 Z M8.00037825,5.375 C9.48562599,5.375 10.6240494,6.51299999 10.6240494,8 C10.6240494,9.48799999 9.48662548,10.625 8.00037825,10.625 C6.51313153,10.625 5.37670712,9.48799999 5.37670712,8 C5.37670712,6.51299999 6.51313153,5.375 8.00037825,5.375 Z M8.00037825,6.25 C7.03786576,6.25 6.25126416,7.03799999 6.25126416,8 C6.25126416,8.96299999 7.03786576,9.75 8.00037825,9.75 C8.96189126,9.75 9.74949234,8.96299999 9.74949234,8 C9.74949234,7.03799999 8.96189126,6.25 8.00037825,6.25 Z" id="形状结合" fill-rule="nonzero" transform="translate(8.000000, 8.000000) rotate(-90.000000) translate(-8.000000, -8.000000) "></path>
                <rect id="矩形" fill-opacity="0" fill="#D8D8D8" x="0" y="0" width="16" height="16"></rect>
            </g>
        </g>
    </g>
</svg>