<svg width="28" height="28" viewBox="0 0 28 28" xmlns="http://www.w3.org/2000/svg">
<g clip-path="url(#clip0_2383_22205)">
<path d="M11.8468 3.22324C13.2664 2.9263 14.7323 2.92558 16.1522 3.22114C16.2468 3.84396 16.4809 4.4375 16.8371 4.95765C17.1933 5.47781 17.6624 5.91119 18.2096 6.22559C18.7564 6.54108 19.3675 6.72955 19.9974 6.77699C20.6272 6.82442 21.2597 6.72961 21.8478 6.49958C22.8142 7.57881 23.5463 8.84587 23.9979 10.221C23.5047 10.6143 23.1066 11.1133 22.8333 11.681C22.56 12.2488 22.4185 12.8707 22.4193 13.5005C22.4193 14.8274 23.036 16.0105 24 16.78C23.5457 18.154 22.8128 19.4201 21.8468 20.4994C21.2588 20.2695 20.6265 20.1748 19.9968 20.2222C19.3672 20.2696 18.7563 20.458 18.2096 20.7734C17.6629 21.0877 17.1941 21.5208 16.8381 22.0405C16.4821 22.5603 16.248 23.1534 16.1532 23.7757C14.7337 24.0733 13.2679 24.0748 11.8478 23.7799C11.7537 23.1565 11.5198 22.5624 11.1636 22.0416C10.8073 21.5209 10.338 21.087 9.79036 20.7723C9.24349 20.457 8.63239 20.2687 8.00251 20.2214C7.37263 20.1742 6.74018 20.2692 6.15218 20.4994C5.18564 19.4198 4.45359 18.1524 4.0021 16.7769C4.49505 16.3839 4.89293 15.8852 5.16621 15.3178C5.4395 14.7504 5.58117 14.1289 5.58072 13.4995C5.58124 12.8695 5.43939 12.2475 5.16572 11.6797C4.89205 11.1119 4.49361 10.613 4 10.22C4.45429 8.84596 5.18724 7.57991 6.15323 6.50063C6.74116 6.73049 7.37347 6.82522 8.00315 6.77779C8.63283 6.73035 9.2437 6.54197 9.79036 6.22664C10.3371 5.91234 10.8059 5.47923 11.1619 4.95947C11.5179 4.43971 11.752 3.84664 11.8468 3.22429V3.22324ZM14 16.6498C14.8373 16.6498 15.6404 16.318 16.2325 15.7274C16.8246 15.1368 17.1572 14.3358 17.1572 13.5005C17.1572 12.6653 16.8246 11.8642 16.2325 11.2736C15.6404 10.683 14.8373 10.3512 14 10.3512C13.1626 10.3512 12.3596 10.683 11.7675 11.2736C11.1754 11.8642 10.8428 12.6653 10.8428 13.5005C10.8428 14.3358 11.1754 15.1368 11.7675 15.7274C12.3596 16.318 13.1626 16.6498 14 16.6498V16.6498Z"/>
</g>
<defs>
<clipPath id="clip0_2383_22205">
<rect width="28" height="28" />
</clipPath>
</defs>
</svg>
