<?xml version="1.0" encoding="UTF-8"?>
<svg width="30px" height="23px" viewBox="0 0 30 23" version="1.1" xmlns="http://www.w3.org/2000/svg" xmlns:xlink="http://www.w3.org/1999/xlink">
    <title></title>
    <defs>
        <rect id="path-1" x="0" y="0" width="30" height="23"></rect>
    </defs>
    <g id="Web-RTC" stroke="none" stroke-width="1" fill-rule="evenodd">
        <g id="切图" transform="translate(-155.000000, -144.000000)">
            <g id="icon-暂停共享--Normal" transform="translate(155.000000, 144.000000)">
                <path d="M21.8232695,19.3997075 C22.3619087,19.3997075 22.798562,19.8363608 22.798562,20.375 C22.798562,20.9136392 22.3619087,21.3502925 21.8232695,21.3502925 L8.17673051,21.3502925 C7.63809134,21.3502925 7.20143801,20.9136392 7.20143801,20.375 C7.20143801,19.8363608 7.63809134,19.3997075 8.17673051,19.3997075 L21.8232695,19.3997075 Z M25.1802143,1.6497075 C26.2847838,1.6497075 27.1802143,2.545138 27.1802143,3.6497075 L27.1802143,15.2403818 C27.1802143,16.3449513 26.2847838,17.2403818 25.1802143,17.2403818 L4.81978572,17.2403818 C3.71521622,17.2403818 2.81978572,16.3449513 2.81978572,15.2403818 L2.81978572,3.6497075 C2.81978572,2.545138 3.71521622,1.6497075 4.81978572,1.6497075 L25.1802143,1.6497075 Z M18.3621266,5.93980868 C18.0180143,5.67247622 17.5206494,5.69690403 17.2045516,6.01301311 L17.2045516,6.01301311 L14.9993325,8.21722356 L12.7945841,6.01279319 L12.7041725,5.93386429 C12.3895024,5.69487099 11.9502291,5.69690758 11.6376842,5.93995798 L11.6376842,5.93995798 L11.5551226,6.01287238 L11.481969,6.09575632 C11.2146365,6.4398686 11.2390644,6.93723346 11.5551734,7.25333131 L11.5551734,7.25333131 L13.759791,9.45676509 L11.6522228,11.5655392 L11.5670543,11.6603709 C11.251543,12.0524126 11.2387151,12.5870063 11.5548507,12.9031419 L11.5548507,12.9031419 L11.6319963,12.9706333 C11.9818494,13.2375949 12.5245001,13.173723 12.8924533,12.8057698 L12.8924533,12.8057698 L15.0000215,10.6969956 L17.1076996,12.8056601 L17.2025312,12.8908286 C17.5945729,13.2063399 18.1291666,13.2191678 18.4453022,12.9030322 L18.4453022,12.9030322 L18.5127937,12.8258866 C18.7797553,12.4760335 18.7158833,11.9333828 18.3479301,11.5654296 L18.3479301,11.5654296 L16.2402521,9.45676509 L18.4450897,7.25242381 L18.5240186,7.16201221 C18.7630119,6.84734211 18.7609753,6.40806877 18.5179249,6.0955239 L18.5179249,6.0955239 L18.4447683,6.01272018 Z" id="形状结合"></path>
                <mask id="mask-2" fill="white">
                    <use xlink:href="#path-1"></use>
                </mask>
                <use id="蒙版" fill-opacity="0" fill="#D8D8D8" xlink:href="#path-1"></use>
            </g>
        </g>
    </g>
</svg>