<?xml version="1.0" encoding="UTF-8"?>
<svg width="30px" height="23px" viewBox="0 0 30 23" version="1.1" xmlns="http://www.w3.org/2000/svg" xmlns:xlink="http://www.w3.org/1999/xlink">
    <title></title>
    <defs>
        <rect id="path-1" x="0" y="0" width="30" height="23"></rect>
    </defs>
    <g id="Web-RTC" stroke="none" stroke-width="1" fill-rule="evenodd">
        <g id="切图" transform="translate(-155.000000, -108.000000)">
            <g id="icon-共享--Normal" transform="translate(155.000000, 108.000000)">
                <path d="M21.8232695,19.3997075 C22.3619087,19.3997075 22.798562,19.8363608 22.798562,20.375 C22.798562,20.9136392 22.3619087,21.3502925 21.8232695,21.3502925 L8.17673051,21.3502925 C7.63809134,21.3502925 7.20143801,20.9136392 7.20143801,20.375 C7.20143801,19.8363608 7.63809134,19.3997075 8.17673051,19.3997075 L21.8232695,19.3997075 Z M25.1802143,1.6497075 C26.2847838,1.6497075 27.1802143,2.545138 27.1802143,3.6497075 L27.1802143,15.2403818 C27.1802143,16.3449513 26.2847838,17.2403818 25.1802143,17.2403818 L4.81978572,17.2403818 C3.71521622,17.2403818 2.81978572,16.3449513 2.81978572,15.2403818 L2.81978572,3.6497075 C2.81978572,2.545138 3.71521622,1.6497075 4.81978572,1.6497075 L25.1802143,1.6497075 Z M14.310983,5.50512043 L11.1657311,8.65037238 C10.8232509,8.99285258 10.8232509,9.54812271 11.1657311,9.89060292 C11.5082113,10.2330831 12.0634814,10.2330831 12.4059616,9.89060292 L14.1228695,8.1736951 L14.1230246,12.7933936 C14.1230246,13.2777338 14.5156598,13.670369 15,13.670369 C15.4843402,13.670369 15.8769754,13.2777338 15.8769754,12.7933936 L15.8764176,8.17300609 L17.5940384,9.89060292 C17.9365186,10.2330831 18.4917887,10.2330831 18.8342689,9.89060292 C19.1767491,9.54812271 19.1767491,8.99285258 18.8342689,8.65037238 L15.689017,5.50512043 C15.3084834,5.12458687 14.6915166,5.12458687 14.310983,5.50512043 Z" id="形状结合"></path>
                <mask id="mask-2" fill="white">
                    <use xlink:href="#path-1"></use>
                </mask>
                <use id="蒙版" fill-opacity="0" fill="#D8D8D8" xlink:href="#path-1"></use>
            </g>
        </g>
    </g>
</svg>