<?xml version="1.0" encoding="UTF-8"?>
<svg width="20px" height="21px" viewBox="0 0 20 21" version="1.1" xmlns="http://www.w3.org/2000/svg" xmlns:xlink="http://www.w3.org/1999/xlink">
    <title></title>
    <g id="【通话中网络质量提示" stroke="none" stroke-width="1" fill-rule="evenodd">
        <g id="icon-信号强度-常态备份" transform="translate(0.000000, 0.800000)">
            <path d="M4,10 C4.55228475,10 5,10.4477153 5,11 L5,16 C5,16.5522847 4.55228475,17 4,17 C3.44771525,17 3,16.5522847 3,16 L3,11 C3,10.4477153 3.44771525,10 4,10 Z M8,8 C8.55228475,8 9,8.44771525 9,9 L9,16 C9,16.5522847 8.55228475,17 8,17 C7.44771525,17 7,16.5522847 7,16 L7,9 C7,8.44771525 7.44771525,8 8,8 Z M12,7 C12.5522847,7 13,7.44771525 13,8 L13,16 C13,16.5522847 12.5522847,17 12,17 C11.4477153,17 11,16.5522847 11,16 L11,8 C11,7.44771525 11.4477153,7 12,7 Z M16,4 C16.5522847,4 17,4.44771525 17,5 L17,16 C17,16.5522847 16.5522847,17 16,17 C15.4477153,17 15,16.5522847 15,16 L15,5 C15,4.44771525 15.4477153,4 16,4 Z" id="信号"></path>
            <rect id="矩形备份-4" fill-opacity="0" fill="#D8D8D8" x="0" y="0" width="20" height="20"></rect>
        </g>
    </g>
</svg>