<?xml version="1.0" encoding="UTF-8"?>
<svg width="20px" height="20px" viewBox="0 0 20 20" version="1.1" xmlns="http://www.w3.org/2000/svg" xmlns:xlink="http://www.w3.org/1999/xlink">
    <title>icon-视频</title>
    <g id="Web-RTC" stroke="none" stroke-width="1" fill="none" fill-rule="evenodd">
        <g id="icon-视频">
            <path d="M12.6766488,5 C13.2289336,5 13.6766488,5.44771525 13.6766488,6 L13.676,7.834 L16.6327042,6.36295278 C16.9293757,6.21532939 17.2895479,6.33615675 17.4371713,6.63282825 C17.478494,6.71587251 17.5,6.80736673 17.5,6.90012404 L17.5,13.3451374 C17.5,13.6765082 17.2313708,13.9451374 16.9,13.9451374 C16.8072427,13.9451374 16.7157485,13.9236314 16.6327042,13.8823086 L13.676,12.411 L13.6766488,14.2452614 C13.6766488,14.7975462 13.2289336,15.2452614 12.6766488,15.2452614 L3.5,15.2452614 C2.94771525,15.2452614 2.5,14.7975462 2.5,14.2452614 L2.5,6 C2.5,5.44771525 2.94771525,5 3.5,5 L12.6766488,5 Z" id="形状结合" fill="#D8D8D8"></path>
            <rect id="矩形" x="0" y="0" width="20" height="20"></rect>
        </g>
    </g>
</svg>