<?xml version="1.0" encoding="UTF-8"?>
<svg width="16px" height="16px" viewBox="0 0 16 16" version="1.1" xmlns="http://www.w3.org/2000/svg" xmlns:xlink="http://www.w3.org/1999/xlink">
    <title>icon-搜索@2x</title>
    <g id="Web-RTC" stroke="none" stroke-width="1" fill="none" fill-rule="evenodd">
        <g id="01-WebRTC-通话中-侧边栏主持会议" transform="translate(-1400.000000, -130.000000)" fill-rule="nonzero">
            <g id="主持会议" transform="translate(1140.000000, 114.000000)">
                <g id="搜索" transform="translate(162.000000, 10.000000)">
                    <g id="icon-搜索" transform="translate(98.000000, 6.000000)">
                        <rect id="矩形" fill="#000000" opacity="0" x="0" y="0" width="16" height="16"></rect>
                        <path d="M10.8851285,10.6497585 L13.567258,13.3321299 C13.6752014,13.4400734 13.6752014,13.6153001 13.567258,13.7232436 L13.3717011,13.9190424 C13.2637577,14.0269859 13.088531,14.0269859 12.9805875,13.9190424 L10.2401299,11.1783427 C9.4009781,11.7580362 8.40486257,12.0677549 7.38495206,12.0660932 C4.60504422,12.0658512 2.35178443,9.81234937 2.35178443,7.03268356 C2.35178443,4.25301775 4.60504422,2 7.38495206,2 C10.1646179,2 12.4178777,4.25325978 12.4178776,7.03316762 C12.4178776,8.45264867 11.8302391,9.7346591 10.8848865,10.6497585 L10.8851285,10.6497585 Z M7.38495206,11.2361869 C9.70622108,11.2361869 11.5879713,9.35443664 11.5879713,7.03316762 C11.5879713,4.71165657 9.70622108,2.82990631 7.38495206,2.82990631 C5.06344101,2.82990631 3.18169075,4.71165655 3.18169075,7.03316762 C3.18169075,9.35443664 5.06344099,11.2361869 7.38495206,11.2361869 Z" id="形状" fill-opacity="0.6" fill="#393946"></path>
                    </g>
                </g>
            </g>
        </g>
    </g>
</svg>