<?xml version="1.0" encoding="UTF-8"?>
<svg width="12px" height="12px" viewBox="0 0 12 12" version="1.1" xmlns="http://www.w3.org/2000/svg" xmlns:xlink="http://www.w3.org/1999/xlink">
    <title>icon-我@2x</title>
    <defs>
        <linearGradient x1="16.8704373%" y1="10.7212391%" x2="84.6447242%" y2="100%" id="linearGradient-1">
            <stop stop-color="#01E9DC" offset="0%"></stop>
            <stop stop-color="#00DE88" offset="100%"></stop>
        </linearGradient>
    </defs>
    <g id="Web-RTC" stroke="none" stroke-width="1" fill="none" fill-rule="evenodd">
        <g id="切图" transform="translate(-303.000000, -262.000000)">
            <g id="icon-我" transform="translate(303.000000, 262.000000)">
                <circle id="椭圆形" fill="url(#linearGradient-1)" cx="6" cy="6" r="6"></circle>
                <path d="M3.95319383,9.5 C4.46971366,9.5 4.73182819,9.24559471 4.73182819,8.75220264 L4.73182819,7.14096916 C5.19438326,7.01762115 5.63381057,6.89427313 6.05011013,6.75550661 L6.05011013,6.00770925 C5.63381057,6.14647577 5.19438326,6.27753304 4.73182819,6.40088106 L4.73182819,5.19052863 L6.45870044,5.19052863 C6.52037445,5.75330396 6.60517621,6.24669604 6.71310573,6.66299559 C6.78248899,6.94052863 6.8595815,7.20264317 6.95209251,7.45704846 C6.41244493,7.95044053 5.78028634,8.32819383 5.05561674,8.59030837 L5.46420705,9.22246696 C6.12720264,8.96806167 6.72081498,8.61343612 7.2527533,8.16629956 C7.36839207,8.41299559 7.49944934,8.62114537 7.64592511,8.8061674 C8.00825991,9.26101322 8.35517621,9.49229075 8.68667401,9.49229075 C9.05671806,9.49229075 9.34196035,8.93722467 9.53469163,7.84251101 L8.88711454,7.50330396 C8.78689427,8.30506608 8.68667401,8.70594714 8.58645374,8.70594714 C8.46310573,8.70594714 8.28579295,8.52863436 8.05451542,8.18171806 C7.96200441,8.04295154 7.87720264,7.86563877 7.78469163,7.65748899 C8.2626652,7.14867841 8.67125551,6.53964758 9.01817181,5.83039648 L8.38601322,5.49889868 C8.13931718,6.00770925 7.84636564,6.46255507 7.51486784,6.86343612 C7.47632159,6.74008811 7.43777533,6.60903084 7.40693833,6.46255507 C7.31442731,6.12334802 7.24504405,5.69933921 7.19878855,5.19052863 L9.46530837,5.19052863 L9.46530837,4.48898678 L7.13711454,4.48898678 C7.09085903,3.9185022 7.06773128,3.25550661 7.06773128,2.5 L6.32764317,2.5 C6.32764317,3.2246696 6.35077093,3.8876652 6.39702643,4.48898678 L4.73182819,4.48898678 L4.73182819,3.50991189 C5.094163,3.40969163 5.4410793,3.30176211 5.77257709,3.18612335 L5.51817181,2.5 C4.68557269,2.83920705 3.72962555,3.06277533 2.6503304,3.1784141 L2.80451542,3.8722467 C3.21310573,3.81057269 3.60627753,3.74889868 3.99174009,3.67180617 L3.99174009,4.48898678 L2.46530837,4.48898678 L2.46530837,5.19052863 L3.99174009,5.19052863 L3.99174009,6.57048458 C3.50605727,6.67070485 2.9972467,6.76321586 2.46530837,6.84801762 L2.56552863,7.58039648 C3.0589207,7.50330396 3.52918502,7.41079295 3.99174009,7.31057269 L3.99174009,8.56718062 C3.99174009,8.75220264 3.89151982,8.84471366 3.69878855,8.84471366 C3.45209251,8.84471366 3.19768722,8.82929515 2.92786344,8.79845815 L3.08975771,9.5 L3.95319383,9.5 Z M8.77918502,4.13436123 L9.31112335,3.61013216 C8.92566079,3.26321586 8.46310573,2.91629956 7.9157489,2.56938326 L7.42235683,3.03964758 C8.00825991,3.43281938 8.45539648,3.79515419 8.77918502,4.13436123 Z" id="我" fill="#FFFFFF" fill-rule="nonzero"></path>
            </g>
        </g>
    </g>
</svg>