<?xml version="1.0" encoding="UTF-8"?>
<svg width="20px" height="20px" viewBox="0 0 20 20" version="1.1" xmlns="http://www.w3.org/2000/svg" xmlns:xlink="http://www.w3.org/1999/xlink">
    <title>icon-关闭 视频</title>
    <g id="Web-RTC" stroke="none" stroke-width="1" fill="none" fill-rule="evenodd">
        <g id="icon-关闭-视频">
            <path d="M2.5605165,5.65656653 L12.148,15.2443283 L3.5,15.2452153 C2.94771525,15.2452153 2.5,14.7975001 2.5,14.2452153 L2.5,5.99995391 C2.5,5.87930919 2.52136449,5.7636544 2.5605165,5.65656653 Z M12.6766488,4.99995391 C13.2289336,4.99995391 13.6766488,5.44766916 13.6766488,5.99995391 L13.676,7.83395391 L16.6327042,6.36290669 C16.9293757,6.2152833 17.2895479,6.33611066 17.4371713,6.63278216 C17.478494,6.71582643 17.5,6.80732064 17.5,6.90007795 L17.5,13.3450913 C17.5,13.6764621 17.2313708,13.9450913 16.9,13.9450913 C16.8072427,13.9450913 16.7157485,13.9235853 16.6327042,13.8822626 L13.676,12.4109539 L13.676,13.0833283 L5.591,4.99932829 L12.6766488,4.99995391 Z" id="形状结合" fill="#CCCCCC"></path>
            <rect id="矩形备份-6" fill="#F94B4B" transform="translate(8.868818, 10.185786) rotate(-45.000000) translate(-8.868818, -10.185786) " x="8.37428234" y="-0.435420927" width="1" height="21.2424136" rx="0.5"></rect>
            <rect id="矩形" fill-opacity="0" fill="#D8D8D8" x="0" y="0" width="20" height="20"></rect>
        </g>
    </g>
</svg>