<?xml version="1.0" encoding="UTF-8"?>
<svg width="12px" height="12px" viewBox="0 0 12 12" version="1.1" xmlns="http://www.w3.org/2000/svg" xmlns:xlink="http://www.w3.org/1999/xlink">
    <title>icon-讲话@1x</title>
    <g id="Web-RTC" stroke="none" stroke-width="1" fill="none" fill-rule="evenodd">
        <g id="切图" transform="translate(-15.000000, -74.000000)">
            <g id="icon-讲话" transform="translate(15.000000, 74.000000)">
                <circle id="椭圆形" fill="#3876FF" cx="6" cy="6" r="6"></circle>
                <path d="M8.8627897,6.92016763 C8.60051471,6.92016763 8.38778972,6.71414528 8.38778972,6.46010969 L8.38778972,5.53989031 C8.38778972,5.28575124 8.6004117,5.07983237 8.8627897,5.07983237 C9.1251677,5.07983237 9.33778972,5.28585472 9.33778972,5.53989031 L9.33778972,6.46010969 C9.33789269,6.71414528 9.1251677,6.92016763 8.8627897,6.92016763 Z M6.95426323,8.11557369 C6.69188522,8.11557369 6.47926323,7.91257568 6.47926323,7.66226924 L6.47926323,4.33773076 C6.47926323,4.08732237 6.69188522,3.88442631 6.95426323,3.88442631 C7.21664124,3.88442631 7.42926323,4.08742432 7.42926323,4.33773076 L7.42926323,7.66226924 C7.42916021,7.91257568 7.21664124,8.11557369 6.95426323,8.11557369 Z M4.57073674,8.38743595 L4.57073674,3.61256405 C4.57073674,3.35022879 4.78340148,3.13756405 5.04573674,3.13756405 C5.30807199,3.13756405 5.52073674,3.35022879 5.52073674,3.61256405 L5.52073674,8.38743595 C5.52073674,8.64977121 5.30807199,8.86243595 5.04573674,8.86243595 C4.78340148,8.86243595 4.57073674,8.64977121 4.57073674,8.38743595 Z M3.13721025,7.22692467 C2.87493525,7.22692467 2.66221025,7.02090232 2.66221025,6.76686672 L2.66221025,5.23313328 C2.66221025,4.97899421 2.87493525,4.77307533 3.13721025,4.77307533 C3.39958826,4.77307533 3.61221025,4.97909768 3.61221025,5.23313328 L3.61221025,6.76676325 C3.61210723,7.02090232 3.39958826,7.22692467 3.13721025,7.22692467 Z" id="形状" fill="#FFFFFF" fill-rule="nonzero" transform="translate(6.000000, 6.000000) rotate(-180.000000) translate(-6.000000, -6.000000) "></path>
            </g>
        </g>
    </g>
</svg>