<?xml version="1.0" encoding="UTF-8"?>
<svg width="20px" height="20px" viewBox="0 0 20 20" version="1.1" xmlns="http://www.w3.org/2000/svg" xmlns:xlink="http://www.w3.org/1999/xlink">
    <title>icon-麦克</title>
    <g id="Web-RTC" stroke="none" stroke-width="1" fill="none" fill-rule="evenodd">
        <g id="icon-静音">
            <rect id="矩形" x="0" y="0" width="20" height="20"></rect>
            <path d="M14.6290166,8.26437583 C14.847267,8.26437583 15.0241938,8.46394392 15.0241938,8.71012364 L15.0241938,8.71012364 L15.0241938,10.0695416 C15.0241938,12.9907714 12.8895832,15.3738733 10.1874617,15.6020589 L10.187,16.4924477 L11.3734567,16.4927678 C11.5959391,16.4927678 11.7762967,16.6731254 11.7762967,16.8956077 C11.7762967,17.1180901 11.5959391,17.2984477 11.3734567,17.2984477 L8.15073709,17.2984477 C7.92825473,17.2984477 7.74789714,17.1180901 7.74789714,16.8956077 C7.74789714,16.6731254 7.92825473,16.4927678 8.15073709,16.4927678 L9.336,16.4924477 L9.33673213,15.6020589 C6.70393877,15.3797278 4.60990863,13.111639 4.50418903,10.2933009 L4.5,10.0695416 L4.5,8.71012364 C4.5,8.46394392 4.67692688,8.26437583 4.89517724,8.26437583 C5.1134276,8.26437583 5.29035448,8.46394392 5.29035448,8.71012364 L5.29035448,8.71012364 L5.29035448,10.0695416 C5.29035448,12.635052 7.286259,14.7284522 9.76209691,14.7284522 C12.2379348,14.7284522 14.2338394,12.635052 14.2338394,10.0695416 L14.2338394,10.0695416 L14.2338394,8.71012364 C14.2338394,8.46394392 14.4107662,8.26437583 14.6290166,8.26437583 Z M9.76209691,2.29844768 C11.6114816,2.29844768 13.110704,3.79767016 13.110704,5.64705481 L13.110704,10.4307793 C13.110704,12.2801639 11.6114816,13.7793864 9.76209691,13.7793864 C7.91271226,13.7793864 6.41348979,12.2801639 6.41348979,10.4307793 L6.41348979,5.64705481 C6.41348979,3.79767016 7.91271226,2.29844768 9.76209691,2.29844768 Z" id="形状结合" fill="#CCCCCC" fill-rule="nonzero"></path>
            <rect id="矩形" fill-opacity="0" fill="#D8D8D8" x="0" y="0" width="20" height="20"></rect>
        </g>
    </g>
</svg>